<?xml version="1.0" encoding="UTF-8"?>
<svg version="1.1" xmlns="http://www.w3.org/2000/svg" width="1120" height="928">
<path d="M0 0 C369.6 0 739.2 0 1120 0 C1120 306.24 1120 612.48 1120 928 C750.4 928 380.8 928 0 928 C0 621.76 0 315.52 0 0 Z " fill="#FEFEFE" transform="translate(0,0)"/>
<path d="M0 0 C9.55095133 6.17037406 15.40506939 17.10129146 18 28 C18.89577365 32.59226804 19.18760808 37.07189039 19.23828125 41.73828125 C19.24784851 42.48450745 19.25741577 43.23073364 19.26727295 43.99957275 C19.29196712 46.43725793 19.30443778 48.87470497 19.3125 51.3125 C19.31611542 52.1457077 19.31973083 52.97891541 19.32345581 53.83737183 C19.35460428 71.82207037 18.0779655 89.9933619 14.45678711 107.6484375 C14.03957938 109.79624343 13.82078209 111.8140723 13.71875 113.99609375 C13.68136719 114.71990234 13.64398437 115.44371094 13.60546875 116.18945312 C13.55326172 117.30223633 13.55326172 117.30223633 13.5 118.4375 C13.43029428 119.91551951 13.35743363 121.39339398 13.28125 122.87109375 C13.25095703 123.52005615 13.22066406 124.16901855 13.18945312 124.83764648 C13 127 13 127 12.49291992 129.64306641 C11.84471468 134.05753997 11.83804968 138.38387031 11.83203125 142.83984375 C11.82775116 143.79007416 11.82347107 144.74030457 11.81906128 145.71932983 C11.80907265 148.79210121 11.80900803 151.86471546 11.8125 154.9375 C11.81343658 155.98553802 11.81437317 157.03357605 11.81533813 158.1133728 C11.84399224 172.83240969 11.9617782 187.39938928 14 202 C14.08719299 202.62884094 14.17438599 203.25768188 14.26422119 203.90557861 C17.0515762 224.05599205 17.0515762 224.05599205 21 244 C21.125 247.0625 21.125 247.0625 21 249 C21.680625 248.319375 22.36125 247.63875 23.0625 246.9375 C23.52785156 246.47601563 23.99320313 246.01453125 24.47265625 245.5390625 C25.47550157 244.52852272 26.46322175 243.50269926 27.43359375 242.4609375 C43.5123927 225.54010668 66.82197305 212.44165785 90.4921875 211.796875 C102.64103019 211.64525287 114.22481463 211.70283745 126 215 C126.79293457 215.22042969 127.58586914 215.44085938 128.40283203 215.66796875 C163.09319347 225.63411477 192.18218474 247.66438477 213.75830078 276.35253906 C214.87651487 277.83616248 216.0133199 279.30572981 217.15234375 280.7734375 C227.08883022 293.87779392 239.12858834 312.07286699 239.25 328.8125 C239.2809375 329.86147461 239.2809375 329.86147461 239.3125 330.93164062 C239.34841176 335.73034912 238.53206932 338.93297696 236 343 C229.83666128 348.68923574 225.0205467 349.5704135 216.73828125 349.44140625 C201.81265665 347.67902842 189.86247481 334.32801655 179.4140625 324.58984375 C155.65366388 302.60624913 125.86716601 278.64669856 91.95703125 279.390625 C85.99469689 279.83285845 82.80468927 282.17313131 78.85546875 286.59765625 C77.93701172 287.78681641 77.93701172 287.78681641 77 289 C76.43925781 289.63808594 75.87851562 290.27617187 75.30078125 290.93359375 C74.1509313 292.24725794 73.06444193 293.61622549 72 295 C75.10271737 297.06847824 78.04547381 298.29269684 81.5 299.6875 C108.66973271 311.07504618 132.93731964 335.39802003 150 359 C150.44649902 359.61278809 150.89299805 360.22557617 151.35302734 360.85693359 C169.95904021 386.58612757 191.5355086 420.93259601 188 454 C186.48701919 458.37992044 185.10989211 461.50371287 181.4375 464.375 C180.83808594 464.85710937 180.23867188 465.33921875 179.62109375 465.8359375 C174.53420874 469.48868867 167.9804878 468.54715101 162 468 C144.15549866 462.66658759 129.03780784 443.18779051 116.25 430.25 C105.93479126 419.79572136 105.93479126 419.79572136 95 410 C93.78762451 408.94566168 92.57667577 407.88968041 91.3671875 406.83203125 C90.20347218 405.82511944 89.03941287 404.81860506 87.875 403.8125 C87.29363281 403.30525391 86.71226562 402.79800781 86.11328125 402.27539062 C82.56192696 399.21264548 78.95657681 396.51946153 75 394 C84.93283835 414.56226537 97.68587389 432.13737751 112.60107422 449.37451172 C114.09100805 451.10574723 115.56416716 452.85030234 117.03515625 454.59765625 C122.14348338 460.64745807 127.32111141 466.47105227 132.99609375 472.00390625 C135.48922248 474.48731518 137.77346989 477.11071487 140.0625 479.78125 C141.98584142 481.98378614 143.96048713 484.13283881 145.94995117 486.27563477 C179 521.91895451 179 521.91895451 179 533 C179.77859375 533.24492188 180.5571875 533.48984375 181.359375 533.7421875 C184.18723311 534.71919427 186.9337572 535.7586462 189.703125 536.8828125 C201.38518722 541.61367038 213.05116917 545.75758191 225.21777344 549.08447266 C232.99084164 551.31524841 239.54831095 554.04566282 243.9375 561.125 C247.08790561 569.64962695 247.17945271 578.16957778 243.3828125 586.51953125 C238.1060061 595.98498906 231.55255464 601.22372268 222 606 C215.22138061 606.86088907 210.60803083 605.38620673 204.8125 602 C204.07547852 601.59209229 203.33845703 601.18418457 202.57910156 600.76391602 C199.18817197 598.87563509 195.84447801 596.91704493 192.52734375 594.90234375 C176.49441695 585.2902315 159.42893475 577.97364357 140.5625 581 C101.41286575 586.37424839 64.64237779 573.98332826 33 551 C32.02160156 550.30519531 31.04320312 549.61039063 30.03515625 548.89453125 C23.544165 544.17456979 17.6201084 539.07183767 11.7890625 533.578125 C9.84301 531.77925294 7.91136228 530.08418787 5.86328125 528.4140625 C3.48982713 526.4129784 1.53760164 524.49906232 -0.4375 522.125 C-2.61788671 519.51290765 -4.90169453 517.10299191 -7.3359375 514.73046875 C-10.9686684 511.12223465 -14.10809563 507.27184382 -17.1875 503.1875 C-17.74284424 502.45321777 -18.29818848 501.71893555 -18.87036133 500.96240234 C-34.07172923 480.65514928 -45.37915897 459.43980326 -55 436 C-59.42729776 460.89912262 -55.44331104 488.4284173 -52.42700195 513.3581543 C-50.82240691 526.63433339 -49.5971657 539.74179599 -49.5625 553.125 C-49.54775635 555.00819946 -49.54775635 555.00819946 -49.53271484 556.92944336 C-49.6392289 568.24231634 -51.82095421 577.11252306 -59 586 C-64.49311778 591.22516081 -69.69098129 592.48334985 -77.10546875 592.3046875 C-91.85593974 590.75200634 -104.49165539 578.22380173 -113.42333984 567.25146484 C-134.38806839 540.41117992 -147.87365618 509.5859859 -156.25 476.75 C-156.49637207 475.79262939 -156.74274414 474.83525879 -156.99658203 473.84887695 C-160.25071339 460.65581432 -161.37322739 447.75336915 -161.37060547 434.21508789 C-161.37497715 431.70064383 -161.41144171 429.18796398 -161.44921875 426.67382812 C-161.60830616 403.65373931 -154.69123726 380.38758724 -139 363 C-136.42265192 360.549481 -133.76612261 358.23445229 -131 356 C-131.86660124 351.4827653 -134.44096444 349.02197418 -137.625 345.875 C-138.20258057 345.30386475 -138.78016113 344.73272949 -139.37524414 344.14428711 C-149.51730627 334.41491229 -160.94420835 327.99291257 -174 323 C-174.87269531 322.63519531 -175.74539063 322.27039063 -176.64453125 321.89453125 C-180.70706088 320.3517132 -183.75574385 319.75809096 -188 321 C-192.5165485 324.18744435 -196.2400803 327.96722501 -200 332 C-200.7734375 332.80566406 -201.546875 333.61132812 -202.34375 334.44140625 C-217.07380973 351.06609322 -225.78258855 373.16101799 -233.77709961 393.59448242 C-240.92583781 411.83903991 -248.29389012 428.74196693 -266 439 C-266.94875 439.61875 -267.8975 440.2375 -268.875 440.875 C-274.43989946 442.87836381 -280.39397598 442.99805175 -285.9375 440.875 C-290.14261711 437.05216627 -292.84604348 432.79850965 -293.16113281 427.07104492 C-293.20746198 423.10963183 -293.24620619 419.1491871 -293.25 415.1875 C-293.25100708 414.46714569 -293.25201416 413.74679138 -293.25305176 413.00460815 C-293.24120385 400.46551717 -292.34969141 388.3390759 -290 376 C-289.79914795 374.89543457 -289.79914795 374.89543457 -289.59423828 373.76855469 C-284.99143675 349.18680491 -273.88666152 323.36597168 -258 304 C-257.37609375 303.17757813 -256.7521875 302.35515625 -256.109375 301.5078125 C-246.69123988 289.39364634 -235.30902764 276.79970922 -222 269 C-220.89011719 268.32710938 -219.78023438 267.65421875 -218.63671875 266.9609375 C-203.67988842 258.03789757 -189.18699024 253.40517507 -171.625 253.625 C-170.44252686 253.63515137 -169.26005371 253.64530273 -168.04174805 253.65576172 C-150.23784185 253.9713514 -134.73373629 258.93275758 -119 267 C-119.6416993 262.89517579 -120.28906473 258.79126508 -120.9375 254.6875 C-121.21110352 252.93663086 -121.21110352 252.93663086 -121.49023438 251.15039062 C-121.75610352 249.47299805 -121.75610352 249.47299805 -122.02734375 247.76171875 C-122.18968506 246.73006592 -122.35202637 245.69841309 -122.51928711 244.63549805 C-122.95337788 241.90509209 -122.95337788 241.90509209 -124 239 C-124.94226648 231.28248886 -125.17670427 223.52885249 -125.23828125 215.76171875 C-125.24802979 214.73023712 -125.25777832 213.69875549 -125.26782227 212.63601685 C-125.43982477 189.72506892 -125.08572918 167.5882456 -121 145 C-120.8340332 143.98760254 -120.66806641 142.97520508 -120.49707031 141.93212891 C-114.16520377 103.42907218 -98.4063798 63.57311633 -74 33 C-72.97519531 31.6696875 -72.97519531 31.6696875 -71.9296875 30.3125 C-61.98312216 17.68660156 -51.13540642 6.77703739 -37 -1 C-35.72576172 -1.70962891 -35.72576172 -1.70962891 -34.42578125 -2.43359375 C-23.21747726 -7.78764309 -10.50111783 -6.07144276 0 0 Z " fill="#4E2D0C" transform="translate(554,121)"/>
<path d="M0 0 C0.85335937 0.83015625 1.70671875 1.6603125 2.5859375 2.515625 C5.42274194 5.39623992 5.42274194 5.39623992 9.05078125 6.8359375 C11.2132714 6.62182956 12.97987062 6.1291224 15.0234375 5.390625 C30.4372874 0.14618902 44.73400028 2.06396622 59.29125977 9.22900391 C64.53292326 12.17011449 66.11579458 15.38848028 67.8984375 20.9453125 C69.22054624 24.99427052 70.97658455 28.66086535 72.8984375 32.453125 C73.24455078 33.13930908 73.59066406 33.82549316 73.94726562 34.5324707 C76.95070451 40.40110607 80.29137239 45.95312849 84.0234375 51.390625 C84.39726563 51.93960449 84.77109375 52.48858398 85.15625 53.05419922 C89.97947013 60.10426896 94.98390678 66.71114631 100.81640625 72.97265625 C103.11844647 75.49471447 105.26040158 78.10352343 107.3984375 80.765625 C111.56490401 85.91543588 115.97912715 90.77885662 120.48046875 95.6328125 C122.47331989 97.79403048 124.42051535 99.97409469 126.3359375 102.203125 C129.12361906 105.42533726 132.02067023 108.53146537 134.94140625 111.63232422 C148.19308824 125.70693849 160.89771157 140.05433963 170.1015625 157.1640625 C174.29387585 164.20237719 178.0629947 167.43064181 185.5234375 170.328125 C186.34352295 170.66021973 187.1636084 170.99231445 188.00854492 171.33447266 C196.8267499 174.83847226 205.83102275 177.80848752 214.86572266 180.69824219 C217.59253419 181.57324078 220.30888253 182.47839283 223.0234375 183.390625 C221.940625 184.31875 221.940625 184.31875 220.8359375 185.265625 C215.42641993 190.64431911 212.177531 198.33434033 211.890625 205.88671875 C211.89320313 207.18738281 211.89578125 208.48804688 211.8984375 209.828125 C211.89457031 211.77525391 211.89457031 211.77525391 211.890625 213.76171875 C212.00151923 216.79174041 212.31089084 219.45561138 213.0234375 222.390625 C209.19067334 221.04397813 205.93786232 219.18790135 202.50488281 217.06494141 C184.28281222 205.82504112 163.10936593 195.37896529 141.3359375 199.390625 C104.35098979 205.5177832 69.17371464 192.0696996 39.0234375 171.390625 C36.4550376 169.49347129 33.97284606 167.54886644 31.53173828 165.49145508 C29.88573139 164.11284019 28.22414286 162.75257567 26.54614258 161.41308594 C19.63142391 155.88644967 13.26133559 149.97897856 7.0234375 143.703125 C6.54442993 143.22229462 6.06542236 142.74146423 5.57189941 142.24606323 C-1.91204673 134.71427095 -8.85826644 127.07297698 -14.9765625 118.390625 C-15.37665527 117.83487793 -15.77674805 117.27913086 -16.18896484 116.70654297 C-29.2666528 98.45560459 -51.64315053 65.76360216 -51.52734375 42.33203125 C-49.42964626 31.12943404 -42.04043229 20.20043298 -32.91015625 13.68359375 C-27.44534601 10.0293469 -22.42390494 9.47293757 -15.9765625 10.390625 C-10.63316543 11.80638612 -5.43923335 13.69921888 -0.24560547 15.58056641 C3.48945303 16.91399917 7.25621382 18.15156028 11.0234375 19.390625 C3.22219909 10.80926275 -6.57742205 4.46587728 -18.2109375 2.9765625 C-28.00019993 2.5399522 -34.60686844 5.50751095 -42.1640625 11.515625 C-57.66522689 26.01671427 -62.28402967 50.81390744 -63.13769531 71.24755859 C-63.15727202 72.59465704 -63.17102308 73.94184968 -63.1796875 75.2890625 C-63.18661118 76.02877289 -63.19353485 76.76848328 -63.20066833 77.53060913 C-63.21799193 79.94233519 -63.22427287 82.35383937 -63.2265625 84.765625 C-63.22790192 85.59920532 -63.22924133 86.43278564 -63.23062134 87.29162598 C-63.22339463 108.2351114 -61.3319197 128.8668042 -58.69091797 149.62963867 C-57.42457447 159.70884048 -56.64697206 169.66443651 -56.5390625 179.828125 C-56.50582886 181.47155884 -56.50582886 181.47155884 -56.47192383 183.14819336 C-56.49507795 191.75424835 -58.28407396 199.13475602 -62.9140625 206.453125 C-66.34419733 209.67537287 -69.49573257 210.5211734 -74.1015625 210.890625 C-85.84843978 210.50293928 -95.37165951 200.46337207 -102.9765625 192.390625 C-120.12385245 173.2899236 -130.92543565 149.10124564 -139.9765625 125.390625 C-140.23066895 124.73819824 -140.48477539 124.08577148 -140.74658203 123.41357422 C-144.15744372 114.63635335 -146.62229811 105.79029346 -148.52246094 96.58398438 C-148.81652275 95.16363419 -149.12119782 93.74542303 -149.43847656 92.33007812 C-151.93337166 81.02491633 -152.28941242 69.73651709 -152.3515625 58.203125 C-152.36334534 57.13398361 -152.36334534 57.13398361 -152.37536621 56.04324341 C-152.57076426 33.25609292 -147.37840302 11.71958209 -131.3828125 -5.2890625 C-101.61499889 -33.99373991 -29.77130246 -26.09872709 0 0 Z " fill="#EEAF06" transform="translate(552.9765625,494.609375)"/>
<path d="M0 0 C9.07074406 5.6312203 12.95287627 15.69511362 15.3359375 25.703125 C16.60586839 32.41948066 16.51412501 39.18850704 16.47558594 45.99658203 C16.46489674 48.23888395 16.47551593 50.48037908 16.48828125 52.72265625 C16.49610868 61.12090687 15.87152188 69.12268231 14.21484375 77.375 C11.97443659 91.96253995 10.64178109 106.69040256 9.21484375 121.375 C9.11478027 122.35710449 9.0147168 123.33920898 8.91162109 124.35107422 C4.09675106 175.37134571 13.97536442 226.29911093 26.25 275.578125 C26.582179 276.92071926 26.91429259 278.2633297 27.24633789 279.60595703 C27.87395072 282.14213762 28.51721828 284.6725421 29.16967773 287.20263672 C29.45270752 288.33459473 29.7357373 289.46655273 30.02734375 290.6328125 C30.28128906 291.6242627 30.53523437 292.61571289 30.796875 293.63720703 C31.24381854 296.56479164 31.04385635 298.54575706 30.21484375 301.375 C28.83203125 303.19140625 28.83203125 303.19140625 27.08984375 304.9375 C13.05699086 320.34781084 9.25711893 339.36181013 7.21484375 359.375 C2.14378197 357.47579926 -2.58418666 354.97759444 -7.375 352.47265625 C-16.82322172 347.64764205 -26.46714689 344.75297563 -36.84765625 342.6875 C-37.85892578 342.47544922 -38.87019531 342.26339844 -39.91210938 342.04492188 C-50.56811449 339.86980686 -61.0562122 339.19743639 -71.91015625 338.8125 C-73.05742187 338.76931641 -74.2046875 338.72613281 -75.38671875 338.68164062 C-78.18610768 338.57666354 -80.9855684 338.47450535 -83.78515625 338.375 C-90.69768487 319.63050021 -96.85905237 301.12223388 -101.2512207 281.63476562 C-101.64530854 279.96687488 -102.06428797 278.30481952 -102.49682617 276.64648438 C-104.41014819 269.30837416 -105.7571838 262.00180412 -106.84765625 254.5 C-107.10252808 252.78502319 -107.10252808 252.78502319 -107.36254883 251.03540039 C-107.6942986 248.79788117 -108.02375259 246.56001999 -108.35058594 244.32177734 C-108.70227171 241.93703171 -109.06796159 239.55591523 -109.44921875 237.17578125 C-120.08810249 168.81698351 -105.14026354 91.6215489 -64.5625 35.01171875 C-61.09135242 30.34933362 -57.21811009 26.1144674 -53.1953125 21.92578125 C-50.77416739 19.443133 -50.77416739 19.443133 -48.7890625 16.8203125 C-37.19885692 2.67709867 -17.96333625 -8.38483118 0 0 Z " fill="#FCE598" transform="translate(548.78515625,126.625)"/>
<path d="M0 0 C1.80957031 1.60742188 1.80957031 1.60742188 3 3 C1.9378125 3.09796875 0.875625 3.1959375 -0.21875 3.296875 C-13.32751561 4.62852468 -22.11559666 7.70607442 -30.8125 18.18359375 C-56.59518281 53.23192819 -54.03246925 101.92658883 -50 143 C-49.87689453 144.26054199 -49.75378906 145.52108398 -49.62695312 146.81982422 C-49.24062492 150.71433925 -48.84290895 154.60742699 -48.4375 158.5 C-48.31076904 159.71824463 -48.18403809 160.93648926 -48.0534668 162.19165039 C-47.87037964 163.8756897 -47.87037964 163.8756897 -47.68359375 165.59375 C-47.57587646 166.59083984 -47.46815918 167.58792969 -47.35717773 168.61523438 C-47.12453053 171.00910186 -47.12453053 171.00910186 -46 173 C-45.7205583 174.75583754 -45.48879906 176.51937696 -45.28125 178.28515625 C-45.15363281 179.36579346 -45.02601563 180.44643066 -44.89453125 181.55981445 C-44.23998865 187.37090525 -43.61217792 193.18430974 -43 199 C-42.84337891 200.3912207 -42.84337891 200.3912207 -42.68359375 201.81054688 C-42.42665237 204.14292323 -42.20571581 206.47513366 -42 208.8125 C-41.814375 210.74029297 -41.814375 210.74029297 -41.625 212.70703125 C-42 216 -42 216 -44.3125 218.88671875 C-48.22727645 221.96505314 -51.58045862 222.48823232 -56.421875 222.38671875 C-69.77119048 220.38432143 -81.62079 206.54023939 -89.32788086 196.27246094 C-102.55754934 177.94578689 -111.97187229 158.03073947 -120 137 C-120.25410645 136.34757324 -120.50821289 135.69514648 -120.77001953 135.02294922 C-124.18088122 126.24572835 -126.64573561 117.39966846 -128.54589844 108.19335938 C-128.83996025 106.77300919 -129.14463532 105.35479803 -129.46191406 103.93945312 C-131.95680916 92.63429133 -132.31284992 81.34589209 -132.375 69.8125 C-132.38678284 68.74335861 -132.38678284 68.74335861 -132.39880371 67.65261841 C-132.59420176 44.86546792 -127.40184052 23.32895709 -111.40625 6.3203125 C-84.49887809 -19.62608184 -31.84669122 -13.12220653 0 0 Z " fill="#FBE392" transform="translate(533,483)"/>
<path d="M0 0 C1.00119873 0.00418945 2.00239746 0.00837891 3.03393555 0.01269531 C20.16935721 0.27072169 42.1971283 4.6346283 54.875 17.3125 C55.4116018 19.75669171 55.85664924 22.15777377 56.25 24.625 C57.54190337 32.08124747 59.5133226 39.11929937 61.875 46.3125 C62.48156213 48.33261562 63.0856703 50.35346946 63.6875 52.375 C64.92563009 56.43248656 66.26121756 60.44168329 67.68359375 64.4375 C68.00287842 65.33460693 68.32216309 66.23171387 68.65112305 67.15600586 C69.29112089 68.94283363 69.93694867 70.72758597 70.58911133 72.51000977 C71.03226685 73.74448853 71.03226685 73.74448853 71.484375 75.00390625 C71.75217773 75.73810791 72.01998047 76.47230957 72.29589844 77.22875977 C72.875 79.3125 72.875 79.3125 72.875 83.3125 C71.22951172 83.71082031 71.22951172 83.71082031 69.55078125 84.1171875 C68.09630753 84.47376815 66.64188302 84.8305496 65.1875 85.1875 C64.46626953 85.36152344 63.74503906 85.53554688 63.00195312 85.71484375 C59.90310517 86.47894325 57.04405951 87.23953497 54.10546875 88.5078125 C51.875 89.3125 51.875 89.3125 49.90234375 89.30859375 C46.70382965 87.73706948 44.71194045 85.03976233 42.4375 82.375 C27.07471315 65.13274848 4.30038739 51.09868579 -19.125 49.3125 C-31.38838489 48.85509552 -43.66465805 48.51999337 -55.125 53.3125 C-56.115 53.3125 -57.105 53.3125 -58.125 53.3125 C-58.125 54.3025 -58.125 55.2925 -58.125 56.3125 C-53.9727099 57.64123283 -49.14932142 58.35104284 -45.17675781 56.31298828 C-42.8484969 55.17767019 -41.37000936 55.08042844 -38.796875 55.1171875 C-37.99765625 55.12363281 -37.1984375 55.13007813 -36.375 55.13671875 C-35.55 55.15347656 -34.725 55.17023438 -33.875 55.1875 C-33.03453125 55.19652344 -32.1940625 55.20554687 -31.328125 55.21484375 C-29.26029396 55.23834183 -27.19261005 55.27421092 -25.125 55.3125 C-29.70220588 59.92121849 -29.70220588 59.92121849 -32.01171875 62.05859375 C-52.56827567 81.36659624 -63.07519659 110.15687367 -73.14404297 135.76098633 C-78.87085405 150.12729074 -85.60134951 163.61286731 -99.69921875 171.30859375 C-103.61080751 172.9273994 -105.93703434 173.10676935 -110.125 172.3125 C-112.82545256 169.67944592 -114.00683506 167.99050177 -114.65844727 164.25170898 C-114.66932373 163.11548096 -114.6802002 161.97925293 -114.69140625 160.80859375 C-114.70478027 159.52436523 -114.7181543 158.24013672 -114.73193359 156.91699219 C-114.71985907 155.52796831 -114.70497962 154.13896638 -114.6875 152.75 C-114.68357239 152.04331177 -114.67964478 151.33662354 -114.67559814 150.60852051 C-114.32169357 105.1835273 -97.57662563 61.6151649 -65.5 29.25 C-47.58329692 11.69765074 -25.43580458 -0.14664135 0 0 Z " fill="#DF960E" transform="translate(383.125,382.6875)"/>
<path d="M0 0 C10.51718209 6.4539866 19.65284973 14.73681111 28.546875 23.2265625 C29.82691406 24.42732422 29.82691406 24.42732422 31.1328125 25.65234375 C56.62793416 50.22256352 85.49186846 92.30693855 87.75 128.48046875 C87.77320313 130.11822266 87.77320313 130.11822266 87.796875 131.7890625 C87.83554687 133.43068359 87.83554687 133.43068359 87.875 135.10546875 C87.5053482 138.6215615 86.65909955 140.41848827 84.546875 143.2265625 C80.43381044 145.96860554 77.37587011 145.93032303 72.546875 145.2265625 C52.59081511 138.6066779 35.65052029 116.48271342 21.26049805 101.90356445 C16.19339823 96.78757844 11.06525155 91.85360982 5.546875 87.2265625 C4.95825684 86.73140137 4.36963867 86.23624023 3.76318359 85.72607422 C-17.36551342 68.15515055 -40.67663085 51.89505964 -69.453125 54.2265625 C-75.3354833 55.71060845 -79.3136184 57.76863232 -83.453125 62.2265625 C-82.65590195 36.93534861 -78.7278857 12.64431231 -59.578125 -5.6484375 C-40.83196377 -21.59961384 -18.65593118 -11.0581938 0 0 Z " fill="#FBE18F" transform="translate(646.453125,435.7734375)"/>
<path d="M0 0 C5.70324368 4.03748731 11.00232746 8.41337549 16.11499023 13.18408203 C18.1632852 15.09247594 20.26581495 16.89845429 22.40795898 18.69970703 C37.97461281 32.40209094 50.46180739 51.600591 59.28295898 70.26220703 C59.5779126 70.88562988 59.87286621 71.50905273 60.17675781 72.15136719 C63.30946806 79.01296209 64.20072325 85.76130831 63.34545898 93.26220703 C61.15927261 96.42840798 59.97654287 97.05184574 56.34545898 98.26220703 C48.93026558 99.32368666 43.50198128 97.3402453 37.34545898 93.26220703 C33.3380155 90.21145095 29.55457296 86.90160728 25.79516602 83.55322266 C23.93300285 81.89490018 22.04415086 80.26809617 20.15795898 78.63720703 C18.0714922 76.8049736 16.00680668 74.95343581 13.95483398 73.08251953 C8.59593341 68.20033097 3.14936417 63.60419341 -2.65454102 59.26220703 C-3.1867627 58.85744141 -3.71898437 58.45267578 -4.26733398 58.03564453 C-21.07766471 45.26334104 -38.53243857 34.11844788 -59.52954102 29.86767578 C-60.23079102 29.66787109 -60.93204102 29.46806641 -61.65454102 29.26220703 C-61.98454102 28.60220703 -62.31454102 27.94220703 -62.65454102 27.26220703 C-51.43200729 24.38265657 -41.26694089 22.64561943 -29.65454102 23.26220703 C-29.15954102 22.27220703 -29.15954102 22.27220703 -28.65454102 21.26220703 C-27.16954102 21.75720703 -27.16954102 21.75720703 -25.65454102 22.26220703 C-25.65454102 22.92220703 -25.65454102 23.58220703 -25.65454102 24.26220703 C-24.82567383 24.21580078 -23.99680664 24.16939453 -23.14282227 24.12158203 C-19.11911416 24.28379199 -15.63338784 25.26374879 -11.84204102 26.51220703 C-11.13208984 26.74182129 -10.42213867 26.97143555 -9.69067383 27.20800781 C10.30154005 33.79125627 27.74495345 46.21926193 42.34545898 61.26220703 C42.34545898 60.60220703 42.34545898 59.94220703 42.34545898 59.26220703 C41.60295898 58.51970703 41.60295898 58.51970703 40.84545898 57.76220703 C40.10295898 57.01970703 40.10295898 57.01970703 39.34545898 56.26220703 C39.34545898 55.60220703 39.34545898 54.94220703 39.34545898 54.26220703 C38.68545898 54.26220703 38.02545898 54.26220703 37.34545898 54.26220703 C36.7744043 53.54162109 36.20334961 52.82103516 35.61499023 52.07861328 C33.08246742 48.93584401 30.2352196 46.60605153 27.03295898 44.19970703 C26.48961914 43.77882813 25.9462793 43.35794922 25.38647461 42.92431641 C21.54563085 39.99947081 17.57736784 37.58466145 13.34545898 35.26220703 C13.34545898 34.60220703 13.34545898 33.94220703 13.34545898 33.26220703 C12.80405273 33.15392578 12.26264648 33.04564453 11.70483398 32.93408203 C8.80723732 32.10893861 6.29898469 30.84338466 3.59545898 29.51220703 C-17.48718884 19.67994078 -43.34065009 14.6620163 -66.00610352 21.81689453 C-78.006688 26.5708734 -93.76153959 33.53755842 -99.90063477 45.73876953 C-100.21129883 46.46837891 -100.52196289 47.19798828 -100.84204102 47.94970703 C-101.86938477 49.87939453 -101.86938477 49.87939453 -103.65454102 51.26220703 C-107.98952055 51.7042757 -112.12571031 51.56743679 -116.46704102 51.34814453 C-120.64841874 51.16772031 -123.93925625 51.85918235 -127.79516602 53.50830078 C-130.04245099 54.41948986 -132.27666615 54.81044977 -134.65454102 55.26220703 C-135.77861961 50.81554616 -136.8995272 46.36810215 -138.01757812 41.91992188 C-138.39790447 40.40863785 -138.77907745 38.89756661 -139.16113281 37.38671875 C-139.71197793 35.20775645 -140.25971525 33.02803235 -140.80688477 30.84814453 C-140.97671371 30.17915131 -141.14654266 29.51015808 -141.32151794 28.82089233 C-144.04526858 17.92845993 -144.04526858 17.92845993 -142.06469727 14.55126953 C-141.2899707 13.67212891 -140.51524414 12.79298828 -139.71704102 11.88720703 C-138.87786133 10.93330078 -138.03868164 9.97939453 -137.17407227 8.99658203 C-136.34262695 8.09423828 -135.51118164 7.19189453 -134.65454102 6.26220703 C-134.0190332 5.54548828 -133.38352539 4.82876953 -132.72875977 4.09033203 C-96.68952698 -34.49557031 -40.07427751 -27.47005579 0 0 Z " fill="#F9DF8E" transform="translate(721.654541015625,363.73779296875)"/>
<path d="M0 0 C1.16144531 0.01804687 2.32289063 0.03609375 3.51953125 0.0546875 C4.84017578 0.08949219 4.84017578 0.08949219 6.1875 0.125 C6.1875 0.785 6.1875 1.445 6.1875 2.125 C6.88875 2.2075 7.59 2.29 8.3125 2.375 C13.95373794 3.84662729 18.08810352 7.23749017 21.1875 12.125 C21.4375 14.9375 21.4375 14.9375 21.1875 17.125 C19.1875 16.125 19.1875 16.125 18.4375 14.375 C16.15348634 10.2637754 12.60334252 7.59694751 8.1875 6.125 C-0.04340731 5.36079095 -6.41943351 6.46117944 -13.8125 10.125 C-12.8225 10.62 -12.8225 10.62 -11.8125 11.125 C-12.57820312 11.87716797 -12.57820312 11.87716797 -13.359375 12.64453125 C-30.18657756 30.15794952 -41.82272406 54.11714851 -49.14306641 77.07714844 C-49.81865757 79.14383652 -50.54749539 81.18412998 -51.29296875 83.2265625 C-79.78382186 162.51740345 -70.70227417 259.83775306 -40.44140625 337.19921875 C-39.8125 339.125 -39.8125 339.125 -39.8125 342.125 C-49.7125 341.795 -59.6125 341.465 -69.8125 341.125 C-76.69559218 322.3249124 -82.879689 303.90199247 -87.27856445 284.38476562 C-87.67265229 282.71687488 -88.09163172 281.05481952 -88.52416992 279.39648438 C-90.43749194 272.05837416 -91.78452755 264.75180412 -92.875 257.25 C-93.12987183 255.53502319 -93.12987183 255.53502319 -93.38989258 253.78540039 C-93.72164235 251.54788117 -94.05109634 249.31001999 -94.37792969 247.07177734 C-94.72961546 244.68703171 -95.09530534 242.30591523 -95.4765625 239.92578125 C-106.11544624 171.56698351 -91.16760729 94.3715489 -50.58984375 37.76171875 C-47.11869617 33.09933362 -43.24545384 28.8644674 -39.22265625 24.67578125 C-36.80151114 22.193133 -36.80151114 22.193133 -34.81640625 19.5703125 C-26.68175445 9.64381733 -13.17539036 -0.2661695 0 0 Z " fill="#F5D277" transform="translate(534.8125,123.875)"/>
<path d="M0 0 C-1.75716525 1.8284705 -3.28255136 3.18112267 -5.4375 4.5625 C-10.46451433 9.34429412 -12.18380855 15.8908694 -12.53125 22.69921875 C-12.54792366 24.69527004 -12.53674795 26.69171736 -12.5 28.6875 C-12.48296021 30.26688354 -12.48296021 30.26688354 -12.46557617 31.87817383 C-12.25277928 40.47108375 -10.921844 47.88055231 -8 56 C-7.66097656 57.04414062 -7.32195313 58.08828125 -6.97265625 59.1640625 C0.16596147 79.63995533 13.05928717 97.54019896 28 113 C28.68835938 113.72832031 29.37671875 114.45664062 30.0859375 115.20703125 C48.84738459 134.61938569 72.55723672 148.14379747 97 159 C98.00111816 159.44714355 98.00111816 159.44714355 99.02246094 159.90332031 C115.80851086 167.19631133 133.94194154 168.15862254 151.96685791 168.33270264 C167.23373003 168.53687507 181.49058276 171.51700833 196.28271484 175.11230469 C202.16532027 176.51708292 208.08060982 177.75989949 214 179 C214 178.34 214 177.68 214 177 C214.66 177.33 215.32 177.66 216 178 C215.2575 179.7634375 215.2575 179.7634375 214.5 181.5625 C211.81523452 189.52814852 212.0744844 198.86314374 214 207 C210.16723584 205.65335313 206.91442482 203.79727635 203.48144531 201.67431641 C185.25937472 190.43441612 164.08592843 179.98834029 142.3125 184 C105.32755229 190.1271582 70.15027714 176.6790746 40 156 C37.4316001 154.10284629 34.94940856 152.15824144 32.50830078 150.10083008 C30.86229389 148.72221519 29.20070536 147.36195067 27.52270508 146.02246094 C20.60798641 140.49582467 14.23789809 134.58835356 8 128.3125 C7.52099243 127.83166962 7.04198486 127.35083923 6.54846191 126.85543823 C-0.93548423 119.32364595 -7.88170394 111.68235198 -14 103 C-14.40009277 102.44425293 -14.80018555 101.88850586 -15.21240234 101.31591797 C-28.2900903 83.06497959 -50.66658803 50.37297716 -50.55078125 26.94140625 C-48.45308376 15.73880904 -41.06386979 4.80980798 -31.93359375 -1.70703125 C-21.56738013 -8.63878217 -10.60222444 -3.95816379 0 0 Z " fill="#E19D0A" transform="translate(552,510)"/>
<path d="M0 0 C18.29513188 -2.25998688 33.90841894 8.73060147 48 19 C48.75893555 19.53995605 49.51787109 20.07991211 50.29980469 20.63623047 C51.03360352 21.16748535 51.76740234 21.69874023 52.5234375 22.24609375 C53.19036621 22.72618896 53.85729492 23.20628418 54.54443359 23.70092773 C55.26493896 24.34396851 55.26493896 24.34396851 56 25 C56 25.66 56 26.32 56 27 C57.98 27.66 59.96 28.32 62 29 C61.48308594 28.04738281 60.96617187 27.09476563 60.43359375 26.11328125 C59.76748863 24.84674336 59.10216485 23.57979432 58.4375 22.3125 C57.92413086 21.37374023 57.92413086 21.37374023 57.40039062 20.41601562 C55.83955687 17.4047101 54.95549375 15.46152368 55.28515625 12.04296875 C55.52105469 11.36878906 55.75695312 10.69460938 56 10 C56.66 10 57.32 10 58 10 C58.28230469 10.64582031 58.56460938 11.29164063 58.85546875 11.95703125 C67.13351351 29.70263454 79.65752833 45.11426645 92.7734375 59.4921875 C94.97860757 61.97590536 97.05511004 64.52794705 99.125 67.125 C104.81201618 74.15894107 111.09027758 80.63285979 117.30371094 87.19921875 C120.94566771 91.06552174 124.48703063 95.01664998 128 99 C128.49209961 99.55510254 128.98419922 100.11020508 129.49121094 100.68212891 C139.55708678 112.05687089 148.85486218 123.34557713 156.078125 136.7734375 C160.27043835 143.81175219 164.0395572 147.04001681 171.5 149.9375 C172.32008545 150.26959473 173.1401709 150.60168945 173.98510742 150.94384766 C182.8033124 154.44784726 191.80758525 157.41786252 200.84228516 160.30761719 C203.56909669 161.18261578 206.28544503 162.08776783 209 163 C207.5 165.0625 207.5 165.0625 205 167 C197.50251372 167.13631793 190.84252621 163.76959394 184 161 C181.73021867 160.14304174 179.4594072 159.28880629 177.1875 158.4375 C171.13226152 156.10912535 165.41601785 153.61067857 160 150 C156.53581611 150.34641839 154.95070119 151.03286587 152 153 C137.50510302 150.47391837 122.42819065 137.43082093 110.66552734 129.15869141 C108.57699149 127.70571703 106.44886302 126.31893692 104.3125 124.9375 C94.82136433 118.62805185 86.06309945 111.33917827 77.4934082 103.84716797 C74.44904147 101.13472913 74.44904147 101.13472913 71 99 C71 98.34 71 97.68 71 97 C70.43925781 96.76539063 69.87851562 96.53078125 69.30078125 96.2890625 C62.36762229 92.40461011 56.88103616 85.0361447 51.7578125 79.03125 C50.5294132 77.61176636 49.27144172 76.21757943 47.9921875 74.84375 C37.49925736 63.56102942 28.50925061 50.82332178 20 38 C19.53062012 37.29504395 19.06124023 36.59008789 18.57763672 35.86376953 C0 7.76740799 0 7.76740799 0 0 Z " fill="#FACA13" transform="translate(567,515)"/>
<path d="M0 0 C1.00119873 0.00418945 2.00239746 0.00837891 3.03393555 0.01269531 C20.16935721 0.27072169 42.1971283 4.6346283 54.875 17.3125 C55.4116018 19.75669171 55.85664924 22.15777377 56.25 24.625 C57.54190337 32.08124747 59.5133226 39.11929937 61.875 46.3125 C62.48156213 48.33261562 63.0856703 50.35346946 63.6875 52.375 C64.92563009 56.43248656 66.26121756 60.44168329 67.68359375 64.4375 C68.00287842 65.33460693 68.32216309 66.23171387 68.65112305 67.15600586 C69.29112089 68.94283363 69.93694867 70.72758597 70.58911133 72.51000977 C71.03226685 73.74448853 71.03226685 73.74448853 71.484375 75.00390625 C71.75217773 75.73810791 72.01998047 76.47230957 72.29589844 77.22875977 C72.875 79.3125 72.875 79.3125 72.875 83.3125 C61.67564655 86.25969828 61.67564655 86.25969828 57.69921875 84.16796875 C55.88667388 82.32208972 54.388448 80.40981626 52.875 78.3125 C51.71984801 76.96917846 50.55301342 75.63581904 49.375 74.3125 C48.79105469 73.64089844 48.20710937 72.96929687 47.60546875 72.27734375 C41.41654967 65.25019636 34.51098034 59.73375717 26.875 54.3125 C25.98683594 53.67957031 25.09867187 53.04664063 24.18359375 52.39453125 C4.24774559 38.93560545 -20.13492699 34.71443466 -43.76171875 37.78515625 C-46.6689309 38.43335976 -49.3387134 39.26219282 -52.125 40.3125 C-53.24777344 40.72628906 -54.37054688 41.14007813 -55.52734375 41.56640625 C-67.32178486 46.26625412 -76.95495154 52.83978438 -86.1640625 61.52734375 C-88.125 63.3125 -88.125 63.3125 -90.125 64.3125 C-89.30214887 57.24642918 -84.22596724 51.87737393 -80.125 46.3125 C-79.50367188 45.46171875 -78.88234375 44.6109375 -78.2421875 43.734375 C-67.33112091 29.46969055 -54.29016084 18.01165516 -38.5 9.5 C-37.80737061 9.12641357 -37.11474121 8.75282715 -36.40112305 8.36791992 C-24.83139128 2.34575076 -12.9945874 -0.07491581 0 0 Z " fill="#F9DD8A" transform="translate(383.125,382.6875)"/>
<path d="M0 0 C0.75764648 0.24669434 1.51529297 0.49338867 2.29589844 0.74755859 C16.7634029 5.51253327 29.69919134 11.24190713 40.83984375 21.9296875 C42.66303349 23.67704837 44.50835153 25.20658796 46.5 26.75 C51.87122216 31.29585705 55.83060381 37.37918838 60 43 C60.65097656 43.84175781 61.30195312 44.68351562 61.97265625 45.55078125 C62.51792969 46.25589844 63.06320312 46.96101563 63.625 47.6875 C64.09164062 48.28949219 64.55828125 48.89148438 65.0390625 49.51171875 C66 51 66 51 66 53 C67.15242188 53.33064453 67.15242188 53.33064453 68.328125 53.66796875 C71.74200902 55.3699197 72.30046541 56.83455823 73.75 60.3125 C74.36101562 61.72982422 74.36101562 61.72982422 74.984375 63.17578125 C77.18637618 69.29903838 77.73724199 75.53418851 77 82 C74.81381363 85.16620095 73.63108389 85.7896387 70 87 C62.58480659 88.06147963 57.1565223 86.07803827 51 82 C46.99255652 78.94924392 43.20911398 75.63940025 39.44970703 72.29101562 C37.58754386 70.63269315 35.69869187 69.00588914 33.8125 67.375 C31.72603322 65.54276656 29.66134769 63.69122878 27.609375 61.8203125 C22.25047443 56.93812394 16.80390518 52.34198638 11 48 C10.46777832 47.59523438 9.93555664 47.19046875 9.38720703 46.7734375 C-7.4231237 34.00113401 -24.87789755 22.85624085 -45.875 18.60546875 C-46.57625 18.40566406 -47.2775 18.20585937 -48 18 C-48.495 17.01 -48.495 17.01 -49 16 C-37.77746627 13.12044954 -27.61239987 11.3834124 -16 12 C-15.67 11.34 -15.34 10.68 -15 10 C-14.01 10.33 -13.02 10.66 -12 11 C-12 11.66 -12 12.32 -12 13 C-11.17113281 12.95359375 -10.34226562 12.9071875 -9.48828125 12.859375 C-5.46457315 13.02158496 -1.97884682 14.00154176 1.8125 15.25 C2.52245117 15.47961426 3.23240234 15.70922852 3.96386719 15.94580078 C23.95608107 22.52904924 41.39949446 34.9570549 56 50 C56 49.34 56 48.68 56 48 C55.505 47.505 55.01 47.01 54.5 46.5 C54.005 46.005 53.51 45.51 53 45 C53 44.34 53 43.68 53 43 C52.34 43 51.68 43 51 43 C50.42894531 42.27941406 49.85789062 41.55882812 49.26953125 40.81640625 C46.73700844 37.67363698 43.88976061 35.3438445 40.6875 32.9375 C39.87249023 32.30618164 39.87249023 32.30618164 39.04101562 31.66210938 C35.20017187 28.73726377 31.23190885 26.32245441 27 24 C27 23.34 27 22.68 27 22 C26.45859375 21.89171875 25.9171875 21.7834375 25.359375 21.671875 C22.46177834 20.84673158 19.9535257 19.58117763 17.25 18.25 C-3.83264783 8.41773375 -29.68610907 3.39980927 -52.3515625 10.5546875 C-67.70640632 16.63744148 -82.03390632 24.92132269 -90 40 C-94.29 39.67 -98.58 39.34 -103 39 C-100.58506259 32.96265647 -97.12203028 28.94947282 -93 24 C-92.47535156 23.30390625 -91.95070313 22.6078125 -91.41015625 21.890625 C-71.26787488 -3.73568717 -29.22364765 -9.87890916 0 0 Z " fill="#DC920A" transform="translate(708,375)"/>
<path d="M0 0 C10.40584609 8.30233874 19.79937266 17.51655311 28.4375 27.625 C25.94115329 30.25882667 23.96829849 31.59159556 20.4375 32.625 C17.14326825 32.4765475 16.24324308 31.42837047 13.87890625 29.03515625 C12.91484035 27.9230963 11.95547678 26.80694831 11 25.6875 C-4.36278685 8.44524848 -27.13711261 -5.58881421 -50.5625 -7.375 C-55.91266284 -7.57455244 -61.21184058 -7.53632641 -66.5625 -7.375 C-67.62855469 -7.35695313 -68.69460938 -7.33890625 -69.79296875 -7.3203125 C-89.05238934 -6.45529229 -104.24049508 5.54409022 -116.875 19.125 C-120.50302145 23.34801697 -123.11570156 27.64161234 -125.5625 32.625 C-126.39587891 34.19121094 -126.39587891 34.19121094 -127.24609375 35.7890625 C-135.85944661 52.50265215 -138.7498905 70.91490488 -138.74780273 89.55029297 C-138.75000117 91.75116995 -138.76823426 93.95155435 -138.78710938 96.15234375 C-138.7900419 97.5624983 -138.79202764 98.97265521 -138.79296875 100.3828125 C-138.79913208 102.28764404 -138.79913208 102.28764404 -138.80541992 104.23095703 C-138.57259215 107.48399385 -137.96689455 109.7076721 -136.5625 112.625 C-132.45350419 111.49704037 -128.48688786 110.28989182 -124.5625 108.625 C-129.56752751 113.90808459 -132.43352383 115.75195652 -139.5625 116.18359375 C-142.7474776 115.29403946 -143.76680973 113.32415769 -145.5625 110.625 C-146.09594727 107.56420898 -146.09594727 107.56420898 -146.12890625 104.12109375 C-146.14228027 102.83686523 -146.1556543 101.55263672 -146.16943359 100.22949219 C-146.15735907 98.84046831 -146.14247962 97.45146638 -146.125 96.0625 C-146.12107239 95.35581177 -146.11714478 94.64912354 -146.11309814 93.92102051 C-145.87558759 63.43563989 -138.39928253 31.89800327 -122.5625 5.625 C-121.5725 5.625 -120.5825 5.625 -119.5625 5.625 C-118.655 4.67625 -117.7475 3.7275 -116.8125 2.75 C-107.7460903 -6.65997891 -95.74001632 -13.00321393 -83.5625 -17.375 C-82.66015625 -17.71402344 -81.7578125 -18.05304688 -80.828125 -18.40234375 C-53.36991283 -27.01279468 -21.99893558 -16.6239775 0 0 Z " fill="#ECB72E" transform="translate(414.5625,439.375)"/>
<path d="M0 0 C0 0.66 0 1.32 0 2 C-2.375 3.3125 -2.375 3.3125 -6 4 C-8.64028138 3.00455411 -10.9881143 1.75678095 -13.4375 0.359375 C-20.45486996 -3.36325419 -27.18627425 -3.88353083 -35 -3 C-46.71666989 0.68097343 -54.38185402 9.46597629 -60 20 C-67.13285234 34.68178772 -70.09857216 52.64173084 -70.203125 68.8984375 C-70.21004868 69.63814789 -70.21697235 70.37785828 -70.22410583 71.13998413 C-70.24142943 73.55171019 -70.24771037 75.96321437 -70.25 78.375 C-70.25200912 79.62537048 -70.25200912 79.62537048 -70.25405884 80.90100098 C-70.24683213 101.8444864 -68.3553572 122.4761792 -65.71435547 143.23901367 C-64.44801197 153.31821548 -63.67040956 163.27381151 -63.5625 173.4375 C-63.52926636 175.08093384 -63.52926636 175.08093384 -63.49536133 176.75756836 C-63.51541553 184.21142782 -65.01551944 190.17917778 -68 197 C-68.66 196.67 -69.32 196.34 -70 196 C-70.37890625 193.84545898 -70.37890625 193.84545898 -70.5625 190.99609375 C-70.63597656 189.95259766 -70.70945312 188.90910156 -70.78515625 187.83398438 C-70.85605469 186.71314453 -70.92695313 185.59230469 -71 184.4375 C-71.16407587 182.14434441 -71.33074317 179.85137276 -71.5 177.55859375 C-71.5825 176.43565918 -71.665 175.31272461 -71.75 174.15576172 C-72.07206538 170.09031528 -72.49228348 166.04611785 -73 162 C-73.144375 160.845 -73.28875 159.69 -73.4375 158.5 C-73.85166767 155.92295669 -74.35109189 153.49517159 -74.96484375 150.96875 C-76.42796745 144.55758332 -76.94303962 138.03638917 -77.5625 131.5 C-77.62692291 130.82993927 -77.69134583 130.15987854 -77.75772095 129.46951294 C-78.18876803 124.9811507 -78.60013181 120.49126404 -79 116 C-79.07637695 115.14776855 -79.15275391 114.29553711 -79.23144531 113.41748047 C-81.90803924 82.04980349 -81.85183653 47.38227845 -69 18 C-68.37351562 16.54787109 -68.37351562 16.54787109 -67.734375 15.06640625 C-62.1920744 3.11391732 -53.44921852 -9.04624164 -40.6875 -13.875 C-39.13614043 -14.29370604 -37.57186399 -14.66642115 -36 -15 C-34.64261719 -15.31710937 -34.64261719 -15.31710937 -33.2578125 -15.640625 C-20.21579207 -17.78546656 -8.3496894 -9.44630759 0 0 Z " fill="#ECB638" transform="translate(560,501)"/>
<path d="M0 0 C0.75764648 0.24669434 1.51529297 0.49338867 2.29589844 0.74755859 C16.7634029 5.51253327 29.69919134 11.24190713 40.83984375 21.9296875 C42.66303349 23.67704837 44.50835153 25.20658796 46.5 26.75 C51.87122216 31.29585705 55.83060381 37.37918838 60 43 C60.65097656 43.84175781 61.30195312 44.68351562 61.97265625 45.55078125 C62.51792969 46.25589844 63.06320312 46.96101563 63.625 47.6875 C64.09164062 48.28949219 64.55828125 48.89148438 65.0390625 49.51171875 C66 51 66 51 66 53 C67.15242188 53.33064453 67.15242188 53.33064453 68.328125 53.66796875 C71.74200902 55.3699197 72.30046541 56.83455823 73.75 60.3125 C74.36101562 61.72982422 74.36101562 61.72982422 74.984375 63.17578125 C76.65352452 67.81730086 77.12179459 71.89104912 77.0625 76.8125 C77.05347656 77.78832031 77.04445313 78.76414062 77.03515625 79.76953125 C77.01775391 80.87361328 77.01775391 80.87361328 77 82 C75.02 82.99 75.02 82.99 73 84 C73.1546875 82.39125 73.1546875 82.39125 73.3125 80.75 C73.20352214 68.32652376 63.74108651 55.6852704 55.1875 47.21484375 C53 45 53 45 53 43 C52.34 43 51.68 43 51 43 C50.42894531 42.27941406 49.85789062 41.55882812 49.26953125 40.81640625 C46.73700844 37.67363698 43.88976061 35.3438445 40.6875 32.9375 C39.87249023 32.30618164 39.87249023 32.30618164 39.04101562 31.66210938 C35.20017187 28.73726377 31.23190885 26.32245441 27 24 C27 23.34 27 22.68 27 22 C26.45859375 21.89171875 25.9171875 21.7834375 25.359375 21.671875 C22.46177834 20.84673158 19.9535257 19.58117763 17.25 18.25 C-3.83264783 8.41773375 -29.68610907 3.39980927 -52.3515625 10.5546875 C-67.70640632 16.63744148 -82.03390632 24.92132269 -90 40 C-94.29 39.67 -98.58 39.34 -103 39 C-100.58506259 32.96265647 -97.12203028 28.94947282 -93 24 C-92.47535156 23.30390625 -91.95070313 22.6078125 -91.41015625 21.890625 C-71.26787488 -3.73568717 -29.22364765 -9.87890916 0 0 Z " fill="#E9B027" transform="translate(708,375)"/>
<path d="M0 0 C0.33 0.66 0.66 1.32 1 2 C1.83966309 1.75987183 1.83966309 1.75987183 2.69628906 1.51489258 C27.85617086 -4.10848499 53.1152439 6.99903415 74.12011719 19.79541016 C78.70103621 22.73076788 82.97883945 26.05799222 87.17919922 29.51196289 C88.57549381 30.65307519 89.98614886 31.77663481 91.40283203 32.89233398 C98.27407431 38.3682216 104.53413789 44.25321481 110.69921875 50.4934082 C112.25724128 52.06982678 113.82325807 53.63795518 115.390625 55.20507812 C120.20088842 60.03254533 124.89073431 64.91716239 129.32763672 70.09399414 C132.5503957 73.76699843 135.99581799 77.2210354 139.4375 80.6875 C140.14970703 81.42033203 140.86191406 82.15316406 141.59570312 82.90820312 C146.03486921 87.37962473 150.45339409 90.99445362 156 94 C156.6592749 94.36053467 157.3185498 94.72106934 157.99780273 95.0925293 C160.90683593 96.41101197 163.84818638 96.6363292 167 97 C167 97.99 167 98.98 167 100 C162.88693544 102.74204304 159.82899511 102.70376053 155 102 C135.04394011 95.3801154 118.10364529 73.25615092 103.71362305 58.67700195 C98.64652323 53.56101594 93.51837655 48.62704732 88 44 C87.41138184 43.50483887 86.82276367 43.00967773 86.21630859 42.49951172 C65.08761158 24.92858805 41.77649415 8.66849714 13 11 C6.87519858 12.54521134 3.51094514 14.48905486 -1 19 C-0.67 12.73 -0.34 6.46 0 0 Z " fill="#EBB739" transform="translate(564,479)"/>
<path d="M0 0 C6.54115751 4.62947173 12.54265014 9.72696287 18.34350586 15.26049805 C18.01350586 16.25049805 17.68350586 17.24049805 17.34350586 18.26049805 C16.53913086 17.33237305 16.53913086 17.33237305 15.71850586 16.38549805 C12.968522 13.92498618 10.86430145 13.29602616 7.34350586 12.26049805 C6.27487305 11.79643555 5.20624023 11.33237305 4.10522461 10.85424805 C-1.60066562 8.37782425 -7.54588596 6.63483671 -13.50805664 4.89233398 C-14.88624917 4.48702009 -16.26160336 4.07184987 -17.63305664 3.64428711 C-34.47144913 -1.54527819 -59.34240701 -3.89654552 -75.65649414 4.26049805 C-77.65609426 4.30049005 -79.65696656 4.30396604 -81.65649414 4.26049805 C-81.65649414 3.27049805 -81.65649414 2.28049805 -81.65649414 1.26049805 C-69.61721788 -5.45371371 -56.80911295 -6.91694766 -43.21899414 -6.80200195 C-42.2012793 -6.79749023 -41.18356445 -6.79297852 -40.13500977 -6.78833008 C-37.64210905 -6.77662632 -35.14933341 -6.76023044 -32.65649414 -6.73950195 C-39.38281261 -13.46582042 -56.95378832 -12.1086543 -65.78149414 -12.17700195 C-87.7795722 -12.05500166 -105.87226998 -5.19258855 -121.65649414 10.26049805 C-123.45386741 12.4132841 -125.08321486 14.54512232 -126.60571289 16.8972168 C-126.9524707 17.34709961 -127.29922852 17.79698242 -127.65649414 18.26049805 C-128.31649414 18.26049805 -128.97649414 18.26049805 -129.65649414 18.26049805 C-129.36770646 10.46323069 -126.34999395 4.16675706 -120.96118164 -1.5324707 C-120.53063477 -1.93079102 -120.10008789 -2.32911133 -119.65649414 -2.73950195 C-127.14647169 2.96059126 -133.09804549 8.63156709 -138.65649414 16.26049805 C-139.40258789 14.5612793 -139.40258789 14.5612793 -139.65649414 12.26049805 C-126.96334413 -6.3582011 -104.61613836 -17.46005614 -83.28662109 -22.27441406 C-54.12396575 -27.43127459 -23.81466315 -16.32924051 0 0 Z " fill="#F9E7AE" transform="translate(721.656494140625,363.739501953125)"/>
<path d="M0 0 C-0.680625 0.680625 -1.36125 1.36125 -2.0625 2.0625 C-2.52011719 2.52398437 -2.97773438 2.98546875 -3.44921875 3.4609375 C-4.49893272 4.50271913 -5.56472367 5.52850623 -6.64453125 6.5390625 C-27.22513774 26.14406462 -36.38989069 54.44303067 -37.12402344 82.16015625 C-37.75128453 112.24587542 -35.21942502 140.90370347 -24.66967773 169.40405273 C-23.97308687 172.1043264 -24.05045642 173.41853544 -25 176 C-28 171.25 -28 171.25 -28 169 C-28.66 169 -29.32 169 -30 169 C-46.05259804 126.8561475 -55.09407755 79.19449099 -36.08398438 36.2746582 C-33.22577952 30.17025385 -29.99599792 24.43948616 -26 19 C-25.37351562 18.14148438 -24.74703125 17.28296875 -24.1015625 16.3984375 C-17.5907731 7.88036915 -11.32469167 -0.25165981 0 0 Z " fill="#F6CA65" transform="translate(482,475)"/>
<path d="M0 0 C10.51718209 6.4539866 19.65284973 14.73681111 28.546875 23.2265625 C29.82691406 24.42732422 29.82691406 24.42732422 31.1328125 25.65234375 C53.13503021 46.85637375 75.66638419 79.51620635 83.546875 109.2265625 C83.546875 110.5465625 83.546875 111.8665625 83.546875 113.2265625 C82.886875 113.2265625 82.226875 113.2265625 81.546875 113.2265625 C81.26714844 112.52273438 80.98742187 111.81890625 80.69921875 111.09375 C75.90442521 99.28406558 70.28253563 88.04620128 63.546875 77.2265625 C60.60120975 72.48271206 60.60120975 72.48271206 60.109375 70.1640625 C59.66501583 68.05228909 59.66501583 68.05228909 57.7265625 66.40625 C55.52481983 64.20450733 53.87518823 61.97429505 52.109375 59.4140625 C47.18404627 52.53701473 41.64006759 46.24611411 36.03759766 39.91699219 C34.75231479 38.45952436 33.48210488 36.98878953 32.21484375 35.515625 C28.56455971 31.29655903 24.78843586 27.48896538 20.51953125 23.89453125 C19.25172923 22.82254815 18.00680189 21.72257445 16.79296875 20.58984375 C10.32409466 14.59600577 2.96634396 9.94021756 -4.453125 5.2265625 C-5.04432129 4.84258301 -5.63551758 4.45860352 -6.24462891 4.06298828 C-18.32401406 -3.72256626 -30.95105599 -7.87952751 -45.453125 -6.7734375 C-45.453125 -6.1134375 -45.453125 -5.4534375 -45.453125 -4.7734375 C-43.803125 -4.7734375 -42.153125 -4.7734375 -40.453125 -4.7734375 C-43.50220368 -0.83361674 -48.18409066 -0.09431109 -52.74023438 1.24414062 C-57.20323341 2.62458778 -60.63058748 4.45399237 -64.453125 7.2265625 C-66.453125 8.55989583 -68.453125 9.89322917 -70.453125 11.2265625 C-70.00088463 3.99071659 -64.13535422 -1.32611773 -59.140625 -6.0234375 C-40.64895785 -21.67971569 -18.24951855 -10.81729509 0 0 Z " fill="#F5E5AF" transform="translate(646.453125,435.7734375)"/>
<path d="M0 0 C0.66 0 1.32 0 2 0 C2.28230469 0.64582031 2.56460938 1.29164063 2.85546875 1.95703125 C11.13351351 19.70263454 23.65752833 35.11426645 36.7734375 49.4921875 C38.97860757 51.97590536 41.05511004 54.52794705 43.125 57.125 C48.81201618 64.15894107 55.09027758 70.63285979 61.30371094 77.19921875 C64.94566771 81.06552174 68.48703063 85.01664998 72 89 C72.49209961 89.55510254 72.98419922 90.11020508 73.49121094 90.68212891 C83.55708678 102.05687089 92.85486218 113.34557713 100.078125 126.7734375 C104.27043835 133.81175219 108.0395572 137.04001681 115.5 139.9375 C116.73012817 140.43564209 116.73012817 140.43564209 117.98510742 140.94384766 C126.8033124 144.44784726 135.80758525 147.41786252 144.84228516 150.30761719 C147.56909669 151.18261578 150.28544503 152.08776783 153 153 C151.5 155.0625 151.5 155.0625 149 157 C141.50251372 157.13631793 134.84252621 153.76959394 128 151 C125.73021867 150.14304174 123.4594072 149.28880629 121.1875 148.4375 C114.01855919 145.67023696 107.93918559 142.92103949 102 138 C101.01 137.67 100.02 137.34 99 137 C97.12836975 134.34852381 95.89864328 131.74781483 94.6875 128.734375 C93.07829244 124.95748183 90.92021762 121.67785159 88.5 118.375 C88.06421631 117.77381348 87.62843262 117.17262695 87.17944336 116.55322266 C79.94179255 106.70279924 71.78081162 97.65859563 63.484375 88.69921875 C60.89078289 85.88133801 58.37303999 83.00879979 55.8671875 80.11328125 C53.9610462 77.95591212 52.01200173 75.84162955 50.0546875 73.73071289 C45.27934509 68.57618089 40.71661224 63.31647278 36.30859375 57.83984375 C34.22861986 55.28122951 32.10850217 52.7674325 29.96411133 50.26318359 C4.29314608 20.25932071 4.29314608 20.25932071 -1 5 C-0.65234375 2.15234375 -0.65234375 2.15234375 0 0 Z " fill="#F2DA83" transform="translate(623,525)"/>
<path d="M0 0 C0.33 1.32 0.66 2.64 1 4 C1.48984375 3.71125 1.9796875 3.4225 2.484375 3.125 C15.65017613 -3.41250125 33.21155805 -0.84798341 46.84619141 3.25927734 C53.24760395 5.46080598 59.14619639 8.636897 65 12 C65.97324219 12.54527344 66.94648437 13.09054687 67.94921875 13.65234375 C94.22688316 29.34221929 113.61902092 54.92074036 129.75 80.3125 C130.40484375 81.33988281 131.0596875 82.36726562 131.734375 83.42578125 C133 86 133 86 132 89 C131.3709375 88.09378906 130.741875 87.18757812 130.09375 86.25390625 C125.09125548 79.11029298 119.93921846 72.40282834 114 66 C112.89158601 64.73286945 111.78739962 63.46202823 110.6875 62.1875 C105.8897532 56.70123828 100.97228127 51.32783494 96 46 C95.26910156 45.21367187 94.53820312 44.42734375 93.78515625 43.6171875 C76.52772335 25.68488292 50.56893721 7.08228306 25 6 C23.92878906 5.9484375 22.85757813 5.896875 21.75390625 5.84375 C15.02644931 5.66995133 9.39498702 6.01898963 3.0859375 8.44140625 C1 9 1 9 -3 8 C-2.01 5.36 -1.02 2.72 0 0 Z " fill="#F7CB67" transform="translate(573,449)"/>
<path d="M0 0 C-0.33 0.99 -0.66 1.98 -1 3 C-3.7734375 4.10546875 -3.7734375 4.10546875 -7.375 5.1875 C-18.06614709 8.69286139 -26.1989076 15.0692726 -33 24 C-33.51046875 24.6290625 -34.0209375 25.258125 -34.546875 25.90625 C-38.12281248 30.69874352 -40.24645562 35.79005082 -42.25 41.375 C-42.4962915 42.05812256 -42.74258301 42.74124512 -42.99633789 43.44506836 C-46.89856788 54.91991601 -47.29311222 66.00797424 -47.20581055 78.01025391 C-47.18729645 80.65406723 -47.18530311 83.29753419 -47.18554688 85.94140625 C-47.18063989 87.61979472 -47.17481519 89.29818082 -47.16796875 90.9765625 C-47.16685593 91.76809723 -47.1657431 92.55963196 -47.16459656 93.37515259 C-47.46961215 96.98568257 -47.46961215 96.98568257 -46 100 C-45.69674878 102.2458605 -45.43347478 104.4971469 -45.1875 106.75 C-44.43572057 113.03036536 -43.04941528 118.80054117 -41 124.8046875 C-40.21166895 127.32365155 -39.61496044 129.72165798 -39.08203125 132.296875 C-38.0348123 137.16180355 -36.44412801 141.72571823 -34.6875 146.375 C-34.37917236 147.20136963 -34.07084473 148.02773926 -33.75317383 148.87915039 C-31.15966054 155.74963834 -28.45038964 162.61287629 -24.86328125 169.03515625 C-24 171 -24 171 -24 175 C-23.01 175.33 -22.02 175.66 -21 176 C-18.51907506 180.16795391 -17.20947461 184.34817457 -16 189 C-16.66 189.33 -17.32 189.66 -18 190 C-28.22521634 172.98267136 -36.14323437 154.96266005 -42 136 C-42.2379126 135.3181665 -42.4758252 134.63633301 -42.72094727 133.93383789 C-44.64578599 128.41266935 -45.97184034 122.92805023 -47.0625 117.1875 C-47.22298828 116.37474609 -47.38347656 115.56199219 -47.54882812 114.72460938 C-47.87801129 113.0363889 -48.19798477 111.34635094 -48.50952148 109.65478516 C-48.84118545 107.8596065 -49.19015372 106.06755241 -49.55493164 104.27880859 C-51.06950408 96.33051645 -51.3399013 88.50873173 -51.31567383 80.44726562 C-51.31252371 78.26641278 -51.33603414 76.08693557 -51.36132812 73.90625 C-51.46177183 51.71772029 -45.91773861 30.81419539 -30.40625 14.3203125 C-22.55579576 6.75023163 -11.33947292 -0.69168689 0 0 Z " fill="#F2E4B1" transform="translate(452,475)"/>
<path d="M0 0 C3.23820356 2.90608012 3.83868683 4.71780975 4.37890625 9.01171875 C4.67256246 17.16778327 3.61269882 22.67000989 -1.61328125 28.93359375 C-5.0238691 32.57104997 -8.30273238 35.14294071 -13 37 C-13.66 37 -14.32 37 -15 37 C-17.86936099 28.21258196 -18.88227383 17.59934365 -15.375 8.875 C-11.98913986 2.59036836 -7.58806948 -1.54571786 0 0 Z " fill="#653A20" transform="translate(788,682)"/>
<path d="M0 0 C0 0.66 0 1.32 0 2 C0.61875 2.12375 1.2375 2.2475 1.875 2.375 C4 3 4 3 6 5 C5.28457031 5.31710937 4.56914062 5.63421875 3.83203125 5.9609375 C-17.32069073 15.8668694 -31.21678495 32.30075541 -39.6015625 54 C-42.02945128 60.71540084 -43.65113994 67.42608983 -44.54296875 74.51171875 C-45.00064502 77.00351179 -45.75311725 78.80897558 -47 81 C-47.66 81 -48.32 81 -49 81 C-49.26675115 74.03483121 -48.65961945 67.76450855 -47 61 C-46.77852295 60.09572266 -46.5570459 59.19144531 -46.32885742 58.25976562 C-40.42717203 35.48957749 -27.87302341 15.66068739 -7.34765625 3.375 C-6.57292969 2.92125 -5.79820312 2.4675 -5 2 C-2 0 -2 0 0 0 Z " fill="#975716" transform="translate(325,437)"/>
<path d="M0 0 C2.25164383 -0.0991448 4.50165332 -0.15895721 6.75488281 -0.20947266 C7.45218506 -0.23928223 8.1494873 -0.2690918 8.86791992 -0.29980469 C21.61345191 -0.4354415 33.37795862 5.33357707 44.62988281 10.72802734 C45.88922084 11.32008356 47.14898561 11.91123292 48.40917969 12.50146484 C57.42438797 16.75769745 57.42438797 16.75769745 60.94238281 19.10302734 C60.94238281 16.79302734 60.94238281 14.48302734 60.94238281 12.10302734 C61.27238281 12.10302734 61.60238281 12.10302734 61.94238281 12.10302734 C62.00296875 12.83908203 62.06355469 13.57513672 62.12597656 14.33349609 C62.20976563 15.30931641 62.29355469 16.28513672 62.37988281 17.29052734 C62.46109375 18.25345703 62.54230469 19.21638672 62.62597656 20.20849609 C62.91904432 22.88952336 63.36942035 25.46932594 63.94238281 28.10302734 C60.10961865 26.75638048 56.85680763 24.90030369 53.42382812 22.77734375 C35.20175753 11.53744346 14.02831124 1.09136763 -7.74511719 5.10302734 C-22.34494121 7.55692763 -38.91517507 7.82654678 -53.05761719 3.10302734 C-53.05761719 2.77302734 -53.05761719 2.44302734 -53.05761719 2.10302734 C-51.30728875 2.2448643 -49.55736184 2.39166163 -47.80761719 2.54052734 C-46.34582031 2.66234375 -46.34582031 2.66234375 -44.85449219 2.78662109 C-42.05761719 3.10302734 -42.05761719 3.10302734 -39.97167969 3.63037109 C-32.08642808 5.57754547 -21.96439653 4.26869996 -14.05761719 3.10302734 C-13.72761719 2.44302734 -13.39761719 1.78302734 -13.05761719 1.10302734 C-8.79988015 0.16081414 -4.34309237 0.21746381 0 0 Z " fill="#E1A820" transform="translate(702.0576171875,688.89697265625)"/>
<path d="M0 0 C-0.59701717 4.46501571 -2.44139689 7.91681063 -4.5625 11.8125 C-11.17762282 24.44178368 -15.14822266 38.31954945 -19 52 C-19.70225144 54.31435418 -20.4103912 56.62693154 -21.125 58.9375 C-21.47820312 60.08089844 -21.83140625 61.22429688 -22.1953125 62.40234375 C-22.46085937 63.25957031 -22.72640625 64.11679687 -23 65 C-23.99 64.67 -24.98 64.34 -26 64 C-23.45287042 41.46539479 -20.40073185 18.14621966 -4 1 C-2 0 -2 0 0 0 Z " fill="#FCEBB0" transform="translate(492,488)"/>
<path d="M0 0 C1.64548828 1.10021484 1.64548828 1.10021484 3.32421875 2.22265625 C8.24878983 5.29416151 13.40173028 7.37758083 18.8125 9.4375 C19.80773682 9.82220459 20.80297363 10.20690918 21.82836914 10.60327148 C31.09730513 14.136155 40.49533782 17.17189165 50 20 C48.21484375 21.99609375 48.21484375 21.99609375 46 24 C38.50251372 24.13631793 31.84252621 20.76959394 25 18 C22.73021867 17.14304174 20.4594072 16.28880629 18.1875 15.4375 C11.07482542 12.69195613 4.82694817 9.994527 -1 5 C-1.99 4.34 -2.98 3.68 -4 3 C-3.01 2.67 -2.02 2.34 -1 2 C-0.67 1.34 -0.34 0.68 0 0 Z " fill="#F6D972" transform="translate(726,658)"/>
<path d="M0 0 C0 1.32 0 2.64 0 4 C-0.68964844 3.80664062 -1.37929688 3.61328125 -2.08984375 3.4140625 C-15.90815943 -0.41488094 -28.7848551 -2.05392509 -43.125 -2.5625 C-44.27226562 -2.60568359 -45.41953125 -2.64886719 -46.6015625 -2.69335938 C-49.40095143 -2.79833646 -52.20041215 -2.90049465 -55 -3 C-43.0914332 -16.28805154 -13.00917006 -6.7623887 0 0 Z " fill="#FBE9AE" transform="translate(400,413)"/>
<path d="M0 0 C0.99 0.33 1.98 0.66 3 1 C2.53851562 1.40347656 2.07703125 1.80695313 1.6015625 2.22265625 C-8.06894668 11.2242567 -15.16482816 22.75938075 -20 35 C-21.65 35 -23.3 35 -25 35 C-25.66 36.32 -26.32 37.64 -27 39 C-28.89995504 33.30013487 -25.24426401 27.27325774 -22.875 22 C-17.87945989 12.33895546 -8.86355181 5.90903454 0 0 Z " fill="#F1C460" transform="translate(618,369)"/>
<path d="M0 0 C0.66 0.33 1.32 0.66 2 1 C1.98952637 2.24612061 1.97905273 3.49224121 1.96826172 4.77612305 C1.93201256 9.40727862 1.90908156 14.0384217 1.89013672 18.66967773 C1.88009037 20.67262889 1.86645091 22.67556542 1.84912109 24.6784668 C1.82481287 27.56042088 1.81350313 30.44218072 1.8046875 33.32421875 C1.79436493 34.21711105 1.78404236 35.11000336 1.77340698 36.029953 C1.77260866 40.4717257 1.89621252 43.96349427 4 48 C8.10899581 46.87204037 12.07561214 45.66489182 16 44 C9.50080308 50.86026341 9.50080308 50.86026341 4.97265625 51.11328125 C2.98144045 51.12377975 0.99013815 51.06633794 -1 51 C-0.34 50.34 0.32 49.68 1 49 C0.01 48.67 -0.98 48.34 -2 48 C-2.34677029 46.54480325 -2.676436 45.08553194 -3 43.625 C-3.185625 42.81289063 -3.37125 42.00078125 -3.5625 41.1640625 C-4.73296526 32.69909054 -3.82691138 24.10031805 -3.125 15.625 C-3.04636719 14.55894531 -2.96773438 13.49289062 -2.88671875 12.39453125 C-2.80292969 11.36972656 -2.71914063 10.34492187 -2.6328125 9.2890625 C-2.55949707 8.36818848 -2.48618164 7.44731445 -2.41064453 6.49853516 C-1.99576616 3.97423955 -1.26880377 2.2054093 0 0 Z " fill="#E9AD22" transform="translate(274,504)"/>
<path d="M0 0 C1.01473389 0.00418945 2.02946777 0.00837891 3.07495117 0.01269531 C19.72975138 0.26015461 33.35955882 4.67948373 48.0625 12.3125 C48.0625 12.9725 48.0625 13.6325 48.0625 14.3125 C42.00161769 13.88964775 36.89969134 11.8142677 31.27734375 9.5859375 C28.6139109 8.53092036 25.95351269 7.50896372 23.25 6.5625 C22.62480469 6.34078125 21.99960937 6.1190625 21.35546875 5.890625 C13.79521502 3.98446222 6.11797704 4.16034754 -1.625 4.1875 C-2.73939453 4.18363281 -3.85378906 4.17976563 -5.00195312 4.17578125 C-6.07767578 4.17707031 -7.15339844 4.17835938 -8.26171875 4.1796875 C-9.7171106 4.18137939 -9.7171106 4.18137939 -11.2019043 4.18310547 C-13.87814965 4.30969271 -16.32967351 4.71478035 -18.9375 5.3125 C-18.6075 4.3225 -18.2775 3.3325 -17.9375 2.3125 C-12.07209735 -0.06708669 -6.26349407 -0.03517945 0 0 Z " fill="#F2E2AE" transform="translate(382.9375,382.6875)"/>
<path d="M0 0 C2.125 0.9375 2.125 0.9375 4 2 C3.61328125 2.79921875 3.2265625 3.5984375 2.828125 4.421875 C-2.13995364 14.89911015 -5.98816692 24.86934884 -7.5078125 36.40625 C-7.98825513 38.93810641 -8.72931818 40.77368144 -10 43 C-10.66 43 -11.32 43 -12 43 C-12.301987 35.85105687 -11.54876503 29.49222323 -9.8125 22.5625 C-9.47738403 21.19206543 -9.47738403 21.19206543 -9.13549805 19.79394531 C-7.4714819 13.25428618 -5.6322135 6.76056316 -2 1 C-1.34 0.67 -0.68 0.34 0 0 Z " fill="#AB651B" transform="translate(288,475)"/>
<path d="M0 0 C0.66 0.33 1.32 0.66 2 1 C1.52691406 1.6084375 1.05382812 2.216875 0.56640625 2.84375 C-13.67736767 21.724386 -22.41977922 43.58138166 -31.01904297 65.44848633 C-34.67254581 74.61368023 -38.48865434 83.94496405 -45.375 91.1875 C-46.06335938 91.92355469 -46.75171875 92.65960937 -47.4609375 93.41796875 C-47.96882813 93.94003906 -48.47671875 94.46210937 -49 95 C-49 91.36063439 -48.33697971 90.96768454 -46 88.3125 C-38.77946638 79.32337414 -34.36943642 68.38187189 -30.390625 57.65234375 C-13.07665481 12.17885463 -13.07665481 12.17885463 0 0 Z " fill="#DCA330" transform="translate(341,453)"/>
<path d="M0 0 C2.29942582 2.29942582 2.78736999 3.87802076 3.8046875 6.9453125 C4.14113281 7.94046875 4.47757812 8.935625 4.82421875 9.9609375 C5.51695314 12.04686635 6.20966207 14.13280365 6.90234375 16.21875 C8.88795875 22.09254647 11.09515418 27.5219398 14 33 C16.03637231 37.3744294 17.41497134 41.20276496 18 46 C19.485 46.495 19.485 46.495 21 47 C23.48092494 51.16795391 24.79052539 55.34817457 26 60 C25.01 60.495 25.01 60.495 24 61 C-0.75034858 19.80920249 -0.75034858 19.80920249 0 0 Z " fill="#F6E7B5" transform="translate(410,604)"/>
<path d="M0 0 C0.66 0 1.32 0 2 0 C2.28230469 0.64582031 2.56460938 1.29164063 2.85546875 1.95703125 C7.43357233 11.77108908 13.55401649 20.39840109 19.78833008 29.21923828 C21 31 21 31 22 33 C21.0625 35.125 21.0625 35.125 20 37 C11.40423724 29.09028403 2.61336872 16.12985743 -1 5 C-0.640625 2.16796875 -0.640625 2.16796875 0 0 Z " fill="#ECCB68" transform="translate(623,525)"/>
<path d="M0 0 C3.86208724 0.53640101 6.13689696 1.33299991 9 4 C10.44921875 6.99609375 10.44921875 6.99609375 11.6875 10.4375 C12.10386719 11.57058594 12.52023437 12.70367188 12.94921875 13.87109375 C14.74700341 19.22434843 14.98148928 22.32917307 14 28 C9.94934698 24.48696225 7.76551257 20.36317635 5.3125 15.6875 C4.90966797 14.95337891 4.50683594 14.21925781 4.09179688 13.46289062 C1.67624266 8.90287454 0.40152188 5.15172984 0 0 Z " fill="#EFBD36" transform="translate(609,504)"/>
<path d="M0 0 C1.37562854 1.28965176 2.70766393 2.62689293 4 4 C4 4.66 4 5.32 4 6 C4.76828125 6.22042969 5.5365625 6.44085938 6.328125 6.66796875 C9.74200902 8.3699197 10.30046541 9.83455823 11.75 13.3125 C12.15734375 14.25738281 12.5646875 15.20226562 12.984375 16.17578125 C14.65352452 20.81730086 15.12179459 24.89104912 15.0625 29.8125 C15.05347656 30.78832031 15.04445313 31.76414062 15.03515625 32.76953125 C15.02355469 33.50558594 15.01195312 34.24164063 15 35 C13.68 35.66 12.36 36.32 11 37 C11.103125 35.9275 11.20625 34.855 11.3125 33.75 C11.33721037 26.81873999 7.97360769 20.05174102 4.26953125 14.32421875 C3.85058594 13.55722656 3.43164062 12.79023438 3 12 C3.33 11.01 3.66 10.02 4 9 C2.69593116 6.98079663 1.36176581 4.98075027 0 3 C0 2.01 0 1.02 0 0 Z " fill="#EBB939" transform="translate(770,422)"/>
<path d="M0 0 C2.55461662 3.16240468 4.30487822 6.42761192 6.06640625 10.0859375 C6.63423828 11.26414062 7.20207031 12.44234375 7.78710938 13.65625 C8.0786792 14.26726563 8.37024902 14.87828125 8.6706543 15.5078125 C9.55768022 17.36490921 10.45310243 19.21777743 11.34960938 21.0703125 C18 34.93096736 18 34.93096736 18 41 C17.34 41 16.68 41 16 41 C15.72027344 40.29617188 15.44054687 39.59234375 15.15234375 38.8671875 C11.20084383 29.13455425 7.02330416 19.21263402 1 10.5625 C-0.80923089 7.83392051 -1.25964635 6.2596321 -0.8125 3 C-0.544375 2.01 -0.27625 1.02 0 0 Z " fill="#F1E2AE" transform="translate(712,508)"/>
<path d="M0 0 C0 0.99 0 1.98 0 3 C-0.66 3.66 -1.32 4.32 -2 5 C-2.99 5 -3.98 5 -5 5 C-5.20238281 5.54011719 -5.40476562 6.08023437 -5.61328125 6.63671875 C-7.56626409 9.96504161 -10.33165182 12.27730004 -13.1875 14.8125 C-14.36839627 15.87626382 -15.54809319 16.94136064 -16.7265625 18.0078125 C-17.2927832 18.51989258 -17.85900391 19.03197266 -18.44238281 19.55957031 C-20.92662933 21.85691427 -23.24878016 24.30039428 -25.53515625 26.79296875 C-27.29611271 28.24399688 -28.7752957 28.60290224 -31 29 C-28.45057481 24.09798025 -24.88193769 20.53800303 -21 16.6875 C-20.33589111 16.02540527 -19.67178223 15.36331055 -18.98754883 14.68115234 C-13.27205447 9.08042143 -7.21520126 3.60760063 0 0 Z " fill="#EFDDA3" transform="translate(338,396)"/>
<path d="M0 0 C0.99 0.66 1.98 1.32 3 2 C-1.95 2 -6.9 2 -12 2 C-12 2.66 -12 3.32 -12 4 C-10.35 4 -8.7 4 -7 4 C-9.70019909 7.49798519 -13.4484342 8.37480255 -17.5 9.625 C-18.17675781 9.8415625 -18.85351562 10.058125 -19.55078125 10.28125 C-21.36503341 10.86095187 -23.182373 11.43096813 -25 12 C-25.99 12.33 -26.98 12.66 -28 13 C-25.47009518 7.05408157 -20.13401525 4.20793316 -14.6875 1.125 C-9.79046121 -0.36901183 -5.08578249 -0.62357524 0 0 Z " fill="#FBE7A1" transform="translate(613,427)"/>
<path d="M0 0 C2.609375 -0.546875 2.609375 -0.546875 6 0 C8.5522833 2.60879142 10.35477122 5.64525335 12.25 8.75 C12.77851562 9.575 13.30703125 10.4 13.8515625 11.25 C15.27001009 13.48207489 16.6637062 15.71782602 18 18 C18.40444336 18.68739258 18.80888672 19.37478516 19.22558594 20.08300781 C20 22 20 22 19 25 C14.88009002 19.72051271 10.77748778 14.42769075 6.6875 9.125 C6.25518066 8.56594971 5.82286133 8.00689941 5.37744141 7.4309082 C3.50176392 4.99607067 1.70584656 2.55876984 0 0 Z " fill="#F4D16D" transform="translate(758,406)"/>
<path d="M0 0 C2.86867231 1.38264837 5.56024032 2.92148553 8.25 4.625 C8.95640625 5.07101562 9.6628125 5.51703125 10.390625 5.9765625 C10.92171875 6.31429688 11.4528125 6.65203125 12 7 C12.99 6.34 13.98 5.68 15 5 C17.66477758 5.50674459 20.10432297 6.09835854 22.6875 6.875 C23.38939453 7.07480469 24.09128906 7.27460938 24.81445312 7.48046875 C26.54634943 7.97529626 28.27365748 8.48613175 30 9 C29.67 9.66 29.34 10.32 29 11 C22.89487038 13.03504321 17.69184547 12.64577219 11.875 9.875 C7.37149112 7.41214358 3.70485372 4.54377312 0 1 C0 0.67 0 0.34 0 0 Z " fill="#DDA325" transform="translate(752,450)"/>
<path d="M0 0 C2.93785297 0.32642811 4.81876259 0.8824406 7.3125 2.5 C9.8126123 6.20387008 9.33395379 9.65860068 9 14 C6 14 6 14 4.5 12.9375 C1.38318616 8.91161546 0 5.05753001 0 0 Z " fill="#EFB92A" transform="translate(609,504)"/>
<path d="M0 0 C0.33 0.99 0.66 1.98 1 3 C0.41992188 3.44730469 -0.16015625 3.89460938 -0.7578125 4.35546875 C-2.38524381 5.61498242 -4.00873511 6.87959833 -5.62890625 8.1484375 C-7.42740865 9.55286936 -9.24145428 10.93742466 -11.0625 12.3125 C-15.23311071 16.12816512 -18.57192532 20.51914096 -22 25 C-22.74609375 23.30078125 -22.74609375 23.30078125 -23 21 C-17.25415261 12.571816 -8.61879679 5.38674799 0 0 Z " fill="#EDDDA2" transform="translate(605,355)"/>
<path d="M0 0 C3.78091617 1.34313185 6.65651916 3.02964684 9.8125 5.5 C10.60269531 6.1084375 11.39289062 6.716875 12.20703125 7.34375 C13.09455078 8.16359375 13.09455078 8.16359375 14 9 C14 9.66 14 10.32 14 11 C7.81839396 10.46246904 2.673142 8.45417612 -3 6 C-2.01 5.67 -1.02 5.34 0 5 C0 3.35 0 1.7 0 0 Z " fill="#91580D" transform="translate(550,503)"/>
<path d="M0 0 C0.66 0.33 1.32 0.66 2 1 C1.72091827 4.39698999 1.42451466 7.79225546 1.125 11.1875 C1.04636719 12.14720703 0.96773438 13.10691406 0.88671875 14.09570312 C0.76103516 15.49272461 0.76103516 15.49272461 0.6328125 16.91796875 C0.55949707 17.77156982 0.48618164 18.6251709 0.41064453 19.50463867 C-0.03588207 22.2180444 -0.89508377 24.48936295 -2 27 C-2.33 27 -2.66 27 -3 27 C-3.26017272 18.16858166 -2.86589874 9.66212846 -1 1 C-0.67 0.67 -0.34 0.34 0 0 Z " fill="#F1B622" transform="translate(274,504)"/>
<path d="M0 0 C0.99 0.33 1.98 0.66 3 1 C-3.6 7.6 -10.2 14.2 -17 21 C-17.66 20.67 -18.32 20.34 -19 20 C-13.08218389 12.91529057 -6.56858667 6.47151396 0 0 Z " fill="#3D210D" transform="translate(320,399)"/>
<path d="M0 0 C0.33 0.66 0.66 1.32 1 2 C1.99 1.67 2.98 1.34 4 1 C3.52343588 2.79236067 3.04366502 4.58386897 2.5625 6.375 C2.29566406 7.37273438 2.02882813 8.37046875 1.75390625 9.3984375 C1 12 1 12 0 14 C-0.66 14 -1.32 14 -2 14 C-2.12375 14.598125 -2.2475 15.19625 -2.375 15.8125 C-3 18 -3 18 -5 21 C-4.42351925 13.64987044 -2.28953836 6.98575424 0 0 Z " fill="#F3E3AC" transform="translate(407,511)"/>
<path d="M0 0 C0.33 1.32 0.66 2.64 1 4 C-5.75 8 -5.75 8 -8 8 C-8.20625 8.556875 -8.4125 9.11375 -8.625 9.6875 C-10.55000774 12.92501302 -13.03850902 14.68231141 -16 17 C-15.8125 15.25 -15.8125 15.25 -15 13 C-14.175 12.360625 -13.35 11.72125 -12.5 11.0625 C-9.75512667 9.26605999 -9.75512667 9.26605999 -9.625 6.5 C-9 4 -9 4 -7.46484375 2.79296875 C-2.6585689 0 -2.6585689 0 0 0 Z " fill="#FBE8A5" transform="translate(615,350)"/>
<path d="M0 0 C0.99 0.33 1.98 0.66 3 1 C-3.27 7.27 -9.54 13.54 -16 20 C-16.66 19.67 -17.32 19.34 -18 19 C-12.36531717 12.2883812 -6.24063576 6.13907026 0 0 Z " fill="#482E1B" transform="translate(503,129)"/>
<path d="M0 0 C0.99 0 1.98 0 3 0 C3.69821417 2.10063576 4.38324472 4.20565737 5.0625 6.3125 C5.44535156 7.48425781 5.82820313 8.65601563 6.22265625 9.86328125 C7.26237696 14.05873719 5.90598887 16.31508818 4 20 C3.32749476 17.41806023 2.66182099 14.83467929 2 12.25 C1.71382813 11.15558594 1.71382813 11.15558594 1.421875 10.0390625 C0.53484036 6.55428354 0 3.61876278 0 0 Z " fill="#EEDCA8" transform="translate(405,590)"/>
<path d="M0 0 C4.21263763 1.52755554 5.84918775 4.26959239 8.25 7.9375 C8.95640625 8.99839844 9.6628125 10.05929687 10.390625 11.15234375 C12 14 12 14 12 17 C8.42849758 15.80949919 8.02201074 14.9154918 6.0625 11.8125 C5.28712891 10.60207031 5.28712891 10.60207031 4.49609375 9.3671875 C4.00238281 8.58601563 3.50867188 7.80484375 3 7 C2.21222918 5.80991198 1.42123812 4.62193962 0.625 3.4375 C-0.179375 2.2309375 -0.179375 2.2309375 -1 1 C-0.67 0.67 -0.34 0.34 0 0 Z " fill="#C37F19" transform="translate(765,425)"/>
<path d="M0 0 C0.99 0.33 1.98 0.66 3 1 C3 1.66 3 2.32 3 3 C3.99 3.33 4.98 3.66 6 4 C8.48092494 8.16795391 9.79052539 12.34817457 11 17 C10.34 17.33 9.68 17.66 9 18 C7.49480613 15.37785672 5.99568681 12.75255792 4.5 10.125 C3.85611328 9.00544922 3.85611328 9.00544922 3.19921875 7.86328125 C2.79316406 7.14785156 2.38710938 6.43242188 1.96875 5.6953125 C1.59169922 5.03547363 1.21464844 4.37563477 0.82617188 3.69580078 C0 2 0 2 0 0 Z " fill="#EDE0AC" transform="translate(425,647)"/>
<path d="M0 0 C0.66 0.33 1.32 0.66 2 1 C1.5153125 1.62003906 1.030625 2.24007813 0.53125 2.87890625 C-5.24265545 10.50712364 -9.68031791 18.4870095 -14 27 C-15 24 -15 24 -13.55859375 20.70703125 C-12.86392342 19.40219791 -12.15612905 18.10429303 -11.4375 16.8125 C-11.07197021 16.14138184 -10.70644043 15.47026367 -10.32983398 14.77880859 C-7.41129774 9.51741946 -4.28231267 4.28231267 0 0 Z " fill="#D89D27" transform="translate(341,453)"/>
<path d="M0 0 C1.37562854 1.28965176 2.70766393 2.62689293 4 4 C4 4.66 4 5.32 4 6 C4.763125 6.20625 5.52625 6.4125 6.3125 6.625 C9.87313444 8.44671994 10.64197328 10.3031495 12 14 C11.67 14.99 11.34 15.98 11 17 C7.05714503 15.68571501 6.78713109 14.20026549 4.9375 10.5625 C2.88290141 6.48129609 2.88290141 6.48129609 0 3 C0 2.01 0 1.02 0 0 Z " fill="#EDC34E" transform="translate(770,422)"/>
<path d="M0 0 C-3.25730144 2.73836862 -6.51827437 4.10588248 -10.5 5.5625 C-14.10419634 6.88927411 -17.60641601 8.1950791 -21 10 C-21.66 9.34 -22.32 8.68 -23 8 C-20.29810266 6.65206012 -17.58972669 5.32164326 -14.875 4 C-14.11445313 3.6184375 -13.35390625 3.236875 -12.5703125 2.84375 C-8.19964509 0.73377263 -4.9726973 -0.50839078 0 0 Z " fill="#EFE0AA" transform="translate(362,387)"/>
<path d="M0 0 C0.33 1.32 0.66 2.64 1 4 C1.66 4 2.32 4 3 4 C3.33 3.34 3.66 2.68 4 2 C3.88490339 3.41750563 3.75746342 4.83401169 3.625 6.25 C3.55539062 7.03890625 3.48578125 7.8278125 3.4140625 8.640625 C2.98492887 11.085877 2.21399362 12.84836903 1 15 C0.34 15 -0.32 15 -1 15 C-1.18451025 4.44191344 -1.18451025 4.44191344 0 0 Z " fill="#BA7219" transform="translate(277,503)"/>
<path d="M0 0 C2.55387603 2.55387603 3.33088014 5.00726118 4.625 8.375 C5.07101562 9.51710938 5.51703125 10.65921875 5.9765625 11.8359375 C7 15 7 15 7 19 C6.34 19 5.68 19 5 19 C1.71125344 12.6672508 0.29754029 7.12608999 0 0 Z " fill="#E1CFA5" transform="translate(723,530)"/>
<path d="M0 0 C0.66 0 1.32 0 2 0 C4.01670288 7.43659188 4.2137731 14.31604457 4 22 C3.67 22 3.34 22 3 22 C2.49465273 19.27172635 1.99556155 16.54255306 1.5 13.8125 C1.35691406 13.04357422 1.21382812 12.27464844 1.06640625 11.48242188 C0.36761285 7.60578227 -0.19039017 3.958529 0 0 Z " fill="#DDCFA3" transform="translate(730,552)"/>
<path d="M0 0 C0.33 0 0.66 0 1 0 C0.41993763 7.75451806 -0.62440584 15.34742277 -2 23 C-2.33 23 -2.66 23 -3 23 C-3.08172936 20.4784979 -3.14083373 17.95970083 -3.1875 15.4375 C-3.21263672 14.73302734 -3.23777344 14.02855469 -3.26367188 13.30273438 C-3.33532304 8.11996685 -2.32172598 4.63735818 0 0 Z " fill="#F9EBB9" transform="translate(405,525)"/>
<path d="M0 0 C3 2 3 2 4 5 C5.62652316 6.70586575 7.29006566 8.3777546 9 10 C5.64906568 10 5.06650193 9.57238962 2.5 7.625 C1.9121875 7.18414063 1.324375 6.74328125 0.71875 6.2890625 C0.1515625 5.86367188 -0.415625 5.43828125 -1 5 C-1.99 4.34 -2.98 3.68 -4 3 C-3.01 2.67 -2.02 2.34 -1 2 C-0.67 1.34 -0.34 0.68 0 0 Z " fill="#F0D061" transform="translate(726,658)"/>
<path d="M0 0 C1.32 0.33 2.64 0.66 4 1 C4 1.66 4 2.32 4 3 C5.423125 2.938125 5.423125 2.938125 6.875 2.875 C10 3 10 3 12 5 C3.09 4.34 -5.82 3.68 -15 3 C-15 2.67 -15 2.34 -15 2 C-10.05 2 -5.1 2 0 2 C0 1.34 0 0.68 0 0 Z " fill="#9D590E" transform="translate(692,385)"/>
<path d="M0 0 C2.89932357 2.39509338 3.50168276 4.31245243 4 8 C2.68 8.33 1.36 8.66 0 9 C-3 5.25 -3 5.25 -3 3 C-2.34 3 -1.68 3 -1 3 C-0.67 2.01 -0.34 1.02 0 0 Z " fill="#F7DC79" transform="translate(722,652)"/>
<path d="M0 0 C7.03051093 3.19426332 12.3156261 8.99814594 17 15 C14.18763616 13.7080083 12.03181101 12.31751572 9.765625 10.21484375 C8.90517578 9.41916992 8.90517578 9.41916992 8.02734375 8.60742188 C7.44082031 8.05634766 6.85429688 7.50527344 6.25 6.9375 C5.64800781 6.38255859 5.04601562 5.82761719 4.42578125 5.25585938 C2.92768667 3.86137451 1.46087426 2.43343009 0 1 C0 0.67 0 0.34 0 0 Z " fill="#D59C2A" transform="translate(729,430)"/>
<path d="M0 0 C2.625 -0.5625 2.625 -0.5625 6 0 C8.39920247 2.7720515 10.21328523 5.80672254 12 9 C11.01 9.495 11.01 9.495 10 10 C9.34 8.35 8.68 6.7 8 5 C7.01 5.33 6.02 5.66 5 6 C3.35 4.02 1.7 2.04 0 0 Z " fill="#EFD27C" transform="translate(758,406)"/>
<path d="M0 0 C-1.35155282 4.42326378 -3.19890438 6.40412982 -7 9 C-7.99 9.33 -8.98 9.66 -10 10 C-8.50006099 6.10015857 -4.53875449 0 0 0 Z " fill="#F2CB6D" transform="translate(519,137)"/>
<path d="M0 0 C4.82142857 5.78571429 4.82142857 5.78571429 6 9 C5.67 9.99 5.34 10.98 5 12 C0.07692308 6.83076923 0.07692308 6.83076923 -0.3125 2.625 C-0.209375 1.75875 -0.10625 0.8925 0 0 Z " fill="#E9CA6F" transform="translate(772,419)"/>
<path d="M0 0 C1.45922693 0.11409593 2.91740598 0.24165544 4.375 0.375 C5.59316406 0.47941406 5.59316406 0.47941406 6.8359375 0.5859375 C9 1 9 1 11 3 C7.01803543 4.05404945 4.01804691 3.84098656 0 3 C0 2.01 0 1.02 0 0 Z " fill="#EADDB2" transform="translate(402,385)"/>
<path d="M0 0 C0.66 0.33 1.32 0.66 2 1 C-1.72143296 4.91447559 -5.14032976 8.49653351 -10 11 C-8.55218207 7.55571735 -6.72305391 5.63869038 -3.875 3.25 C-3.15054687 2.63640625 -2.42609375 2.0228125 -1.6796875 1.390625 C-0.84824219 0.70226562 -0.84824219 0.70226562 0 0 Z " fill="#F0E09E" transform="translate(513,132)"/>
<path d="M0 0 C0.33 0 0.66 0 1 0 C1.33 1.65 1.66 3.3 2 5 C2.33 5 2.66 5 3 5 C3.25 12.625 3.25 12.625 1 16 C0.14701624 12.32612505 -0.10789471 8.9552607 -0.0625 5.1875 C-0.05347656 4.21167969 -0.04445313 3.23585938 -0.03515625 2.23046875 C-0.02355469 1.49441406 -0.01195312 0.75835938 0 0 Z " fill="#E5D4A9" transform="translate(401,559)"/>
<path d="M0 0 C2.475 0.99 2.475 0.99 5 2 C5 2.99 5 3.98 5 5 C2.36 5.33 -0.28 5.66 -3 6 C-2.01 5.67 -1.02 5.34 0 5 C0 3.35 0 1.7 0 0 Z " fill="#75430C" transform="translate(550,503)"/>
<path d="M0 0 C-0.99 0.495 -0.99 0.495 -2 1 C-2.78375 0.71125 -3.5675 0.4225 -4.375 0.125 C-9.51180435 -1.46918066 -14.65203572 -1.67116077 -20 -2 C-20 -2.33 -20 -2.66 -20 -3 C-11.9703351 -4.23121528 -6.95268716 -4.41228224 0 0 Z " fill="#ECC455" transform="translate(544,489)"/>
<path d="M0 0 C5.61 0.33 11.22 0.66 17 1 C17 1.33 17 1.66 17 2 C12.05 2.33 7.1 2.66 2 3 C1.34 2.01 0.68 1.02 0 0 Z " fill="#F2DF9F" transform="translate(453,474)"/>
<path d="M0 0 C0.99 0.33 1.98 0.66 3 1 C1.71451591 2.33929505 0.42141845 3.67128643 -0.875 5 C-1.59429688 5.7425 -2.31359375 6.485 -3.0546875 7.25 C-5 9 -5 9 -7 9 C-5.44499019 5.18315774 -2.96404505 2.80804268 0 0 Z " fill="#584027" transform="translate(587,358)"/>
<path d="M0 0 C4 0 4 0 5.8125 1.25 C7 3 7 3 6.6875 5.1875 C6.460625 5.785625 6.23375 6.38375 6 7 C3.95880212 5.38405168 1.95927063 3.7143618 0 2 C0 1.34 0 0.68 0 0 Z " fill="#EEE1B1" transform="translate(454,689)"/>
<path d="M0 0 C0.33 0 0.66 0 1 0 C1.3152595 5.98993047 0.68219822 9.63560356 -2 15 C-3.31534494 11.34142468 -2.65468309 8.91973519 -1.5625 5.25 C-1.27503906 4.26515625 -0.98757813 3.2803125 -0.69140625 2.265625 C-0.46324219 1.51796875 -0.23507812 0.7703125 0 0 Z " fill="#CCBD95" transform="translate(405,517)"/>
<path d="M0 0 C0.33 0.99 0.66 1.98 1 3 C-1.97 5.97 -4.94 8.94 -8 12 C-8.99 11.67 -9.98 11.34 -11 11 C-10.28972656 10.37351562 -9.57945312 9.74703125 -8.84765625 9.1015625 C-7.46900391 7.87566406 -7.46900391 7.87566406 -6.0625 6.625 C-5.14597656 5.81289063 -4.22945313 5.00078125 -3.28515625 4.1640625 C-0.96398605 2.21290653 -0.96398605 2.21290653 0 0 Z " fill="#5D4430" transform="translate(424,475)"/>
<path d="M0 0 C0.99 0 1.98 0 3 0 C3 3.96 3 7.92 3 12 C0.8008587 7.60171741 0.48144941 4.81449408 0 0 Z " fill="#E5D5A7" transform="translate(405,590)"/>
<path d="M0 0 C0.33 1.32 0.66 2.64 1 4 C-2.66305234 4.74926071 -5.42355152 5.2380014 -9 4 C-2.25 0 -2.25 0 0 0 Z " fill="#ECDBA5" transform="translate(615,350)"/>
<path d="M0 0 C4.95 1.98 4.95 1.98 10 4 C7 6 7 6 4.8125 5.625 C4.214375 5.41875 3.61625 5.2125 3 5 C3 4.34 3 3.68 3 3 C2.01 2.67 1.02 2.34 0 2 C0 1.34 0 0.68 0 0 Z " fill="#EFD880" transform="translate(729,661)"/>
<path d="M0 0 C1.6286551 0.42369072 3.25287378 0.8644623 4.875 1.3125 C5.77992188 1.55613281 6.68484375 1.79976562 7.6171875 2.05078125 C10 3 10 3 12 6 C7.01208429 5.52496041 3.9767259 4.0298864 0 1 C0 0.67 0 0.34 0 0 Z " fill="#E3B94E" transform="translate(708,574)"/>
<path d="M0 0 C2.11635213 2.57642867 3.67339287 4.62505968 4 8 C3.01 9.485 3.01 9.485 2 11 C-0.32590854 7.36576791 -0.16265833 4.22911669 0 0 Z " fill="#E4BA43" transform="translate(620,517)"/>
<path d="M0 0 C-0.56589844 0.19335938 -1.13179687 0.38671875 -1.71484375 0.5859375 C-2.81505859 0.97652344 -2.81505859 0.97652344 -3.9375 1.375 C-5.03384766 1.75785156 -5.03384766 1.75785156 -6.15234375 2.1484375 C-8.18682116 2.85271413 -8.18682116 2.85271413 -9 5 C-9.99 4.67 -10.98 4.34 -12 4 C-9.83602181 0.75403272 -9.54508198 0.55807016 -6 -0.25 C-4.948125 -0.50523437 -4.948125 -0.50523437 -3.875 -0.765625 C-2 -1 -2 -1 0 0 Z " fill="#DA9E1D" transform="translate(567,502)"/>
<path d="M0 0 C-0.33 0.99 -0.66 1.98 -1 3 C-2.98 3.33 -4.96 3.66 -7 4 C-7.33 3.01 -7.66 2.02 -8 1 C-5.07175348 0.02391783 -3.04386724 -0.08226668 0 0 Z " fill="#EADBA7" transform="translate(452,475)"/>
<path d="M0 0 C1.9375 0.75 1.9375 0.75 4 2 C4.75 4.125 4.75 4.125 5 6 C4.01 6 3.02 6 2 6 C0.3125 3.5 0.3125 3.5 -1 1 C-0.67 0.67 -0.34 0.34 0 0 Z " fill="#B06C17" transform="translate(765,425)"/>
<path d="M0 0 C0.99 0.33 1.98 0.66 3 1 C0.03 3.475 0.03 3.475 -3 6 C-3 3 -3 3 -1.5 1.3125 C-0.7575 0.6628125 -0.7575 0.6628125 0 0 Z " fill="#41260F" transform="translate(320,399)"/>
<path d="M0 0 C0.639375 0.495 1.27875 0.99 1.9375 1.5 C3.70974339 3.09802862 3.70974339 3.09802862 5 3 C5.33 5.31 5.66 7.62 6 10 C2.51668565 6.98112756 1.20842856 4.43090471 0 0 Z " fill="#F4C446" transform="translate(617,522)"/>
<path d="M0 0 C0.33 0 0.66 0 1 0 C1 2.97 1 5.94 1 9 C-0.32 8.67 -1.64 8.34 -3 8 C-2.01 5.36 -1.02 2.72 0 0 Z " fill="#E6CC80" transform="translate(573,449)"/>
<path d="M0 0 C0.33 0.99 0.66 1.98 1 3 C1.66 3 2.32 3 3 3 C2.67 4.98 2.34 6.96 2 9 C1.34 9 0.68 9 0 9 C0 6.03 0 3.06 0 0 Z " fill="#D08511" transform="translate(275,515)"/>
<path d="M0 0 C0.33 0 0.66 0 1 0 C1.22786458 1.98567708 1.45572917 3.97135417 1.68359375 5.95703125 C1.97170735 8.19396393 1.97170735 8.19396393 3 11 C1.68 11 0.36 11 -1 11 C-0.67 7.37 -0.34 3.74 0 0 Z " fill="#774C10" transform="translate(562,491)"/>
<path d="M0 0 C0.33 0.66 0.66 1.32 1 2 C1.99 2.33 2.98 2.66 4 3 C3.67 5.31 3.34 7.62 3 10 C1.11608215 6.73454239 0.50712033 3.71888239 0 0 Z " fill="#F8E7AB" transform="translate(727,547)"/>
<path d="M0 0 C0.66 0 1.32 0 2 0 C0.75023244 3.65316671 0.32901247 4.78065836 -3 7 C-2.25 2.25 -2.25 2.25 0 0 Z " fill="#402411" transform="translate(294,428)"/>
</svg>
